
<svg version="1.1" id="Layer_1" xmlns="http://www.w3.org/2000/svg" xmlns:xlink="http://www.w3.org/1999/xlink" x="0px" y="0px"
	 viewBox="0 0 135.4 166.7" style="enable-background:new 0 0 135.4 166.7;" xml:space="preserve">
  <style>
        path { fill: #000; }
        @media (prefers-color-scheme: dark) {
            path { fill: #FFF; }
        }
    </style>
<path class="st0" d="M114.2,70.6c-6-4.9-12.9-5.2-19.9-2.7c-9.3,3.3-15.2,10.2-19,19c-1.5,3.6-2.3,7.3-2.6,11.2c-1.1,0-2.1,0-3.1,0
	c0-0.5,0-0.9,0-1.2c0.2-4.6,1.2-9,3.1-13.2C75.3,78,78,72.3,81,66.8c3.1-5.8,3.6-11.6,0.7-17.4c-3.1-6.3-6.4-12.6-9.6-18.8
	c-1.4-2.7-2.9-5.4-4.4-8.2c-0.2,0.4-0.3,0.6-0.4,0.8c-2.3,4.2-4.6,8.4-6.8,12.7c-2.6,5.2-5.2,10.4-7.5,15.7c-2,4.5-1.6,9.1,0.6,13.5
	c1.1,2.2,2.2,4.3,3.4,6.5c3.4,6.4,6.6,12.9,8,20c0.5,2.2,0.6,4.4,0.9,6.7c-1.3,0-2.2,0-3.3,0c0-0.4-0.1-0.6-0.1-0.9
	C61.5,86.9,57,78.4,48.7,72c-6.2-4.8-13.2-6.8-21-4.8c-10.9,2.9-18.1,15.7-9.2,26.7c2.6,3.2,6,5.2,10.1,5.8
	c-0.2-2.1-0.6-4.1-0.6-6.2c0-4.9,3.1-8.6,7.9-9.4c6.7-1.1,12.3,1.3,16.9,5.9c2.2,2.2,3.7,4.9,4.3,8c-3,0.4-3.8,0.9-3.8,2.4
	c0,3,2.3,2.6,4.3,2.7c-0.4,2.4-0.5,4.7-2.3,6.5c-0.9-1.1-1.7-2-2.5-3c-2.2-2.4-4.7-4.4-8-5c-2.6-0.5-5.1,0-6.8,2.2
	c-1.7,2.2-1.9,4.6-0.8,7.1c1.6,3.6,4.6,5.8,8.4,6.7c1.7,0.4,3.3,0.5,5.1,0c-0.4-0.5-0.7-0.9-1-1.3c-1.3-1.6-2.4-3.3-4.8-3.9
	c-1.8-0.4-3-2-3-4.1c0-1.5,1.1-2.4,2.6-2c0.9,0.3,1.9,0.8,2.6,1.5c1.4,1.3,2.6,2.8,3.8,4.3c4.1,5.3,8.2,10.6,12.1,15.6
	c-1.5,3.4-3,6.6-4.6,10.1c1.7-0.7,3.2-1.3,4.9-2c-0.2,3.5,2.4,5.6,4,8.4c1.7-2.8,4.1-5,4-8.3c1.7,0.7,3.2,1.3,4.8,2
	c-1.6-3.5-3-6.7-4.6-10.2c4.6-5.9,9.3-12.1,14.2-18.1c1-1.2,2.4-2.2,3.7-3.1c0.8-0.6,2-0.7,2.6,0.2c0.4,0.7,0.7,1.8,0.5,2.6
	c-0.5,1.9-1.9,2.9-3.8,3.5c-0.5,0.2-1.2,0.2-1.5,0.6c-1.1,1.3-2.2,2.7-3.3,4.2c0.3,0.1,0.5,0.2,0.7,0.3c5,1,11.1-2.4,12.9-7.2
	c1-2.5,0.7-4.9-1-7c-1.8-2.1-4.2-2.6-6.8-2c-3.4,0.7-6,2.8-8.2,5.4c-0.7,0.9-1.5,1.7-2.2,2.6c-1.7-2-1.9-4.2-2.2-6.5
	c1.8-0.1,4,0.3,4.2-2.2c0.3-2.7-1.9-2.8-3.8-2.9c2-8.9,11.4-15,20.2-14.2c5.7,0.6,9.1,4.4,9,10c0,1.9-0.4,3.8-0.6,5.7
	c0.1,0,0.2,0,0.3,0c6.9-1.5,11.5-5.7,13.3-12.5C122,80.4,119.5,74.9,114.2,70.6z M42.6,78.9c-5.8-1-11.2,0-15.6,4.3
	c-1.9,1.8-3,4.1-3.6,6.7c-0.1,0.3-0.2,0.6-0.3,0.9c-3.4-3-4.1-8.6-1.6-12.6c3.3-5.3,9.2-7.5,15.8-6c4.8,1.1,8.6,3.7,12,7.3
	c0.6,0.6,1.1,1.3,1.6,1.9C48.1,80.5,45.4,79.4,42.6,78.9z M63.2,71.1c-1.6-3.1-3.1-6.3-4.4-9.5c-1.2-3.2-1-6.4,0.2-9.6
	c1.9-5.2,4.4-10.2,7.4-14.9c0.3-0.5,0.7-1,1.2-1.7c3.1,4.4,5.5,8.9,7.4,13.7c0.8,2.1,1.6,4.2,2,6.4c0.6,3.4-0.5,6.5-1.9,9.5
	c-0.8,1.9-1.8,3.7-2.8,5.5c-2.1,3.9-4.1,7.8-4.9,12.3c-0.1-0.2-0.2-0.5-0.2-0.7C66.8,78.1,65,74.6,63.2,71.1z M76,114.4
	c-2.7,3.7-5.5,7.4-8.3,11.2c-2.9-3.8-5.6-7.5-8.3-11.2c-0.1-0.2-0.2-0.6,0-0.8c2.3-3.1,3.2-6.5,3.3-10.4c1.1,0,2.1,0,3.2,0
	c0,3.4-0.5,6.6-2,9.6c-0.3,0.7-0.4,1.1,0.1,1.7c1.2,1.6,2.4,3.3,3.7,5.1c1.4-1.9,2.7-3.7,4-5.5c0.2-0.3,0-0.9-0.2-1.2
	c-1.4-3-2-6.2-1.9-9.6c1.1,0,2.1,0,3.1,0c0.2,1.5,0.3,3.1,0.8,4.5c0.6,1.9,1.6,3.6,2.4,5.5C75.9,113.5,76.2,114.1,76,114.4z
	 M112.3,90.8c-0.6-2.8-1.7-5.3-3.6-7.3c-3.7-4-8.5-5.2-13.7-4.9c-3.3,0.2-6.4,1.1-9.3,2.5c-0.4,0.2-0.8,0.3-1.4,0.6
	c4.2-5.1,8.9-8.9,15.4-9.7c5.5-0.7,10.3,0.7,13.7,5.4C116.5,81.6,116.1,86.8,112.3,90.8z"/>
</svg>

