<?xml version="1.0" encoding="utf-8"?>
<!-- Generator: Adobe Illustrator 27.8.1, SVG Export Plug-In . SVG Version: 6.00 Build 0)  -->
<svg version="1.1" id="Layer_1" xmlns="http://www.w3.org/2000/svg" xmlns:xlink="http://www.w3.org/1999/xlink" x="0px" y="0px"
	 viewBox="0 0 524.1 540" style="enable-background:new 0 0 524.1 540;" xml:space="preserve">
<style type="text/css">
	.st0{opacity:5.000000e-02;}
	.st1{fill:#CCCCCC;}
</style>
<g class="st0">
	<path class="st1" d="M421.9,468.1c34,13.5,69.1,27.1,94,40.6c0-0.8,0-1.5,0-2.3c-24.9-13.2-59.3-26.4-92.4-39.6
		C423,467.3,422.4,467.7,421.9,468.1z"/>
	<path class="st1" d="M440.2,454.7c25.7,10.2,52.5,20.5,75.7,30.7c0-0.8,0-1.5,0-2.3c-22.8-9.9-48.8-19.8-73.7-29.7
		C441.5,453.8,440.9,454.2,440.2,454.7z"/>
	<path class="st1" d="M462.1,441.2c17.7,6.9,36,13.9,53.8,20.8c0-0.8,0-1.5,0-2.3c-17.1-6.6-34.6-13.2-51.4-19.8
		C463.7,440.3,462.9,440.8,462.1,441.2z"/>
	<path class="st1" d="M486.8,427.7c9.5,3.6,19.3,7.3,29.2,10.9c0-0.8,0-1.6,0-2.4c-9-3.3-17.8-6.6-26.5-10
		C488.5,426.8,487.6,427.3,486.8,427.7z"/>
	<path class="st1" d="M513.1,414.3c1,0.4,1.9,0.7,2.9,1.1c0-0.8,0-1.6,0-2.3c-0.1,0-0.1,0-0.2-0.1
		C514.8,413.4,513.9,413.8,513.1,414.3z"/>
	<path class="st1" d="M430.5,461.4c29.8,11.9,60.8,23.8,85.4,35.7c0-0.8,0-1.6,0-2.4c-24.4-11.5-54.5-23.1-83.5-34.6
		C431.7,460.5,431.1,461,430.5,461.4z"/>
	<path class="st1" d="M450.7,447.9c21.7,8.6,44.3,17.2,65.2,25.8c0-0.8,0-1.6,0-2.4c-20.3-8.3-42.1-16.5-62.9-24.8
		C452.2,447,451.5,447.5,450.7,447.9z"/>
	<path class="st1" d="M474.1,434.5c13.6,5.3,27.7,10.6,41.8,15.9c0-0.8,0-1.5,0-2.3c-13.2-5-26.5-9.9-39.3-14.9
		C475.8,433.6,475,434,474.1,434.5z"/>
	<path class="st1" d="M499.8,421c5.3,2,10.6,4,16.1,6c0-0.8,0-1.5,0-2.3c-4.6-1.7-9-3.3-13.4-5C501.6,420.1,500.7,420.6,499.8,421z"
		/>
	<path class="st1" d="M407.9,535.5c5.3,1.8,10.6,3.7,15.7,5.5c0.8,0,1.7,0,2.5,0c-6.3-2.3-12.7-4.6-19.4-6.9
		C407.1,534.6,407.5,535.1,407.9,535.5z"/>
	<path class="st1" d="M399.3,522c17.7,6.3,34.7,12.7,49.8,19c0.8,0,1.7,0,2.6,0c-15.9-6.8-34-13.6-52.9-20.4
		C398.9,521.1,399.1,521.6,399.3,522z"/>
	<path class="st1" d="M396.5,508.6c29.3,10.8,57.2,21.7,78.1,32.5c0.8,0,1.7,0,2.6,0c-21.2-11.3-50.3-22.6-80.6-33.8
		C396.6,507.7,396.5,508.1,396.5,508.6z"/>
	<path class="st1" d="M399.5,495.1c40.1,15.3,78.9,30.6,100.6,46c0.8,0,1.7,0,2.6,0c-21.5-15.8-61.4-31.5-102.6-47.3
		C400,494.2,399.7,494.7,399.5,495.1z"/>
	<path class="st1" d="M408.1,481.6c43,16.8,85.9,33.6,107.8,50.5c0-0.8,0-1.6,0-2.4c-22.4-16.5-64.6-33-106.6-49.5
		C408.9,480.7,408.5,481.2,408.1,481.6z"/>
	<path class="st1" d="M402.9,528.8c11.6,4.1,22.9,8.2,33.4,12.3c0.8,0,1.7,0,2.6,0c-11.5-4.5-24-9.1-36.8-13.6
		C402.3,527.9,402.6,528.3,402.9,528.8z"/>
	<path class="st1" d="M397.2,515.3c23.6,8.6,46.1,17.2,64.7,25.8c0.8,0,1.7,0,2.6,0c-19.1-9-42.8-18.1-67.5-27.1
		C397,514.4,397.1,514.9,397.2,515.3z"/>
	<path class="st1" d="M397.3,501.8c34.7,13.1,68.1,26.2,90.1,39.2c0.8,0,1.7,0,2.6,0c-22.1-13.5-56.5-27-92.3-40.6
		C397.5,500.9,397.4,501.4,397.3,501.8z"/>
	<path class="st1" d="M403.1,488.4c45.5,17.6,89.7,35.1,109.8,52.7c0.8,0,1.7,0,2.6,0c-19.5-18-64.9-36-111.5-54
		C403.7,487.5,403.5,487.9,403.1,488.4z"/>
	<path class="st1" d="M414.4,474.9c38.4,15.2,77.5,30.3,101.5,45.5c0-0.8,0-1.5,0-2.3c-24.3-14.8-62.6-29.7-100.1-44.5
		C415.3,474,414.9,474.5,414.4,474.9z"/>
	<path class="st1" d="M500.5,259.4c4.2,5.3,9.3,10.6,15.4,15.8c0-0.8,0-1.6,0-2.3c-5.6-4.9-10.3-9.9-14.2-14.8
		C501.3,258.5,500.9,258.9,500.5,259.4z"/>
	<path class="st1" d="M511,245.9c1.5,2,3.2,4,4.9,6c0-0.8,0-1.6,0-2.3c-1.4-1.7-2.8-3.3-4-5C511.6,245,511.3,245.5,511,245.9z"/>
	<path class="st1" d="M506.1,252.6c2.9,3.6,6.1,7.3,9.8,10.9c0-0.8,0-1.6,0-2.3c-3.3-3.3-6.2-6.6-8.8-9.9
		C506.8,251.7,506.5,252.2,506.1,252.6z"/>
	<path class="st1" d="M515.1,239.2c0.3,0.3,0.5,0.7,0.8,1c0-0.8,0-1.6,0-2.3c0,0,0,0,0,0C515.6,238.3,515.4,238.7,515.1,239.2z"/>
	<path class="st1" d="M403.9,326.8c18.8,21.7,55.2,43.5,112,65.2c0-0.8,0-1.5,0-2.3c-55.5-21.4-91-42.8-109.4-64.2
		C405.6,325.8,404.8,326.3,403.9,326.8z"/>
	<path class="st1" d="M428.4,313.3c15.8,18.4,43.6,36.9,87.5,55.3c0-0.8,0-1.5,0-2.3c-42.8-18.1-69.7-36.2-85.2-54.4
		C429.9,312.4,429.1,312.8,428.4,313.3z"/>
	<path class="st1" d="M450.6,299.8c12.9,15.2,33.5,30.3,65.3,45.5c0-0.8,0-1.6,0-2.4c-30.7-14.8-50.6-29.6-63.2-44.5
		C452,298.9,451.3,299.4,450.6,299.8z"/>
	<path class="st1" d="M470.3,286.3c10,11.9,24.4,23.7,45.6,35.6c0-0.8,0-1.5,0-2.3c-20.2-11.5-34.2-23.1-43.8-34.6
		C471.4,285.4,470.9,285.9,470.3,286.3z"/>
	<path class="st1" d="M487,272.9c7.1,8.6,16.4,17.1,29,25.7c0-0.8,0-1.5,0-2.3c-11.8-8.2-20.7-16.5-27.5-24.7
		C487.9,272,487.4,272.4,487,272.9z"/>
	<path class="st1" d="M416.4,320c17.3,20.1,49.1,40.2,99.5,60.3c0-0.8,0-1.6,0-2.4c-49.1-19.8-80.1-39.5-97.1-59.3
		C418,319.1,417.2,319.6,416.4,320z"/>
	<path class="st1" d="M439.7,306.5c14.4,16.8,38.4,33.6,76.2,50.4c0-0.8,0-1.5,0-2.3c-36.6-16.5-59.9-32.9-73.9-49.4
		C441.3,305.6,440.5,306.1,439.7,306.5z"/>
	<path class="st1" d="M460.8,293.1c11.4,13.5,28.8,27,55.1,40.6c0-0.8,0-1.6,0-2.4c-25.2-13.2-42-26.4-53.2-39.5
		C462.1,292.2,461.4,292.6,460.8,293.1z"/>
	<path class="st1" d="M479,279.6c8.5,10.2,20.3,20.4,36.9,30.6c0-0.8,0-1.5,0-2.3c-15.7-9.9-27.1-19.8-35.3-29.6
		C480.1,278.7,479.5,279.1,479,279.6z"/>
	<path class="st1" d="M494.1,266.1c5.7,6.9,12.7,13.9,21.8,20.8c0-0.8,0-1.5,0-2.3c-8.4-6.6-15.1-13.2-20.5-19.8
		C495,265.2,494.6,265.7,494.1,266.1z"/>
	<path class="st1" d="M420.6,467.6c0.4,0.2,0.9,0.3,1.3,0.5c0.6-0.4,1.1-0.9,1.6-1.3c-0.4-0.2-0.8-0.3-1.3-0.5
		c-62.9-24.5-116-49-143.2-73.5c-0.8,0.4-1.5,0.9-2.3,1.4C304.2,418.6,357.6,443.1,420.6,467.6z"/>
	<path class="st1" d="M438.8,454.2c0.4,0.2,0.9,0.3,1.3,0.5c0.7-0.4,1.3-0.9,2-1.3c-0.4-0.2-0.9-0.4-1.3-0.5
		c-62.9-24.5-113.2-49-138.3-73.5c-0.8,0.4-1.7,0.9-2.5,1.3C325.4,405.1,376,429.6,438.8,454.2z"/>
	<path class="st1" d="M463.2,439.3c-63.6-24.5-111.7-49-135.2-73.5c-0.8,0.4-1.7,0.9-2.5,1.3c23.5,24.5,71.9,49,135.4,73.5
		c0.4,0.2,0.9,0.3,1.3,0.5c0.8-0.4,1.5-0.9,2.3-1.4C464,439.7,463.6,439.5,463.2,439.3z"/>
	<path class="st1" d="M488,425.9c-65-24.5-111.5-49-133.6-73.5c-0.9,0.4-1.8,0.9-2.7,1.4c22.3,24.5,68.9,49,133.7,73.5
		c0.4,0.2,0.9,0.3,1.3,0.5c0.9-0.4,1.7-0.9,2.6-1.4C488.9,426.2,488.5,426,488,425.9z"/>
	<path class="st1" d="M514.4,412.4c-67-24.5-112.2-49-133.6-73.5c-0.9,0.4-1.7,0.9-2.6,1.4c21.5,24.5,66.8,49,133.6,73.5
		c0.5,0.2,0.9,0.4,1.3,0.5c0.9-0.4,1.7-0.9,2.7-1.4C515.2,412.7,514.8,412.6,514.4,412.4z"/>
	<path class="st1" d="M429.2,460.9c0.4,0.2,0.8,0.3,1.3,0.5c0.6-0.4,1.3-0.9,1.9-1.3c-0.4-0.2-0.9-0.4-1.3-0.5
		c-62.8-24.5-114.4-49-140.5-73.5c-0.8,0.4-1.6,0.9-2.3,1.4C314.5,411.9,366.4,436.4,429.2,460.9z"/>
	<path class="st1" d="M449.5,447.4c0.4,0.2,0.8,0.3,1.3,0.5c0.7-0.4,1.5-0.9,2.2-1.4c-0.5-0.2-0.9-0.3-1.3-0.5
		c-63.1-24.5-112.3-49-136.5-73.5c-0.8,0.4-1.7,0.9-2.5,1.3C337,398.4,386.4,422.9,449.5,447.4z"/>
	<path class="st1" d="M475.3,432.6c-64.2-24.5-111.5-49-134.2-73.5c-0.9,0.4-1.8,0.9-2.7,1.4c22.8,24.5,70.3,49,134.3,73.5
		c0.5,0.2,0.9,0.3,1.3,0.5c0.8-0.4,1.7-0.9,2.5-1.4C476.2,432.9,475.8,432.8,475.3,432.6z"/>
	<path class="st1" d="M501.1,419.1c-65.9-24.5-111.8-49-133.5-73.5c-0.9,0.4-1.7,0.9-2.6,1.4c21.8,24.5,67.7,49,133.4,73.5
		c0.4,0.2,1,0.4,1.4,0.5c0.8-0.4,1.7-0.9,2.6-1.4C502,419.5,501.5,419.3,501.1,419.1z"/>
	<path class="st1" d="M391.2,333.5c20.3,23.4,61.7,46.8,124.7,70.2c0-0.8,0-1.6,0-2.4c-61.8-23.1-102.2-46.1-122.2-69.2
		C392.9,332.6,392,333,391.2,333.5z"/>
	<path class="st1" d="M406.4,535c0.5,0.2,1,0.4,1.5,0.5c-0.4-0.4-0.8-0.9-1.1-1.4c-0.5-0.2-1-0.3-1.4-0.5
		c-72.3-24.5-151-49-197.2-73.5c-0.1,0.4-0.3,0.9-0.4,1.4C254.5,486,334,510.5,406.4,535z"/>
	<path class="st1" d="M397.9,521.5c0.5,0.2,1,0.3,1.4,0.5c-0.2-0.4-0.4-0.9-0.5-1.3c-0.5-0.2-1-0.4-1.4-0.5
		c-69.9-24.5-141.6-49-182.9-73.5c-0.3,0.4-0.5,0.9-0.8,1.4C255.3,472.5,327.7,497,397.9,521.5z"/>
	<path class="st1" d="M395.1,508.1c0.5,0.2,1,0.3,1.4,0.5c0-0.4,0-0.9,0-1.3c-0.4-0.2-0.9-0.4-1.4-0.5
		c-67.5-24.5-133.2-49-170.1-73.5c-0.4,0.4-0.9,0.9-1.3,1.3C261.1,459,327.4,483.5,395.1,508.1z"/>
	<path class="st1" d="M398.2,494.6c0.5,0.2,0.9,0.3,1.3,0.5c0.2-0.4,0.4-0.9,0.6-1.4c-0.5-0.2-0.9-0.3-1.4-0.5
		c-65.4-24.5-126-49-159.1-73.5c-0.6,0.4-1.1,0.9-1.6,1.4C271.5,445.6,332.6,470.1,398.2,494.6z"/>
	<path class="st1" d="M406.8,481.1c0.5,0.2,0.9,0.4,1.3,0.5c0.4-0.4,0.8-0.9,1.1-1.4c-0.4-0.2-0.8-0.3-1.3-0.5
		c-63.9-24.5-120.3-49-150.2-73.5c-0.7,0.4-1.3,0.9-2,1.4C286,432.1,342.9,456.6,406.8,481.1z"/>
	<path class="st1" d="M401.4,528.3c0.5,0.2,1,0.3,1.5,0.5c-0.3-0.4-0.6-0.9-0.8-1.3c-0.5-0.2-1-0.3-1.4-0.5
		c-71.2-24.5-146.2-49-189.9-73.5c-0.2,0.4-0.4,0.9-0.6,1.4C254.3,479.2,330,503.8,401.4,528.3z"/>
	<path class="st1" d="M395.8,514.8c0.4,0.2,0.9,0.3,1.4,0.5c-0.1-0.4-0.2-0.9-0.2-1.3c-0.5-0.2-1-0.4-1.4-0.5
		c-68.7-24.5-137.3-49-176.3-73.5c-0.3,0.4-0.7,0.9-1,1.3C257.6,465.8,326.8,490.3,395.8,514.8z"/>
	<path class="st1" d="M396,501.3c0.4,0.2,0.9,0.3,1.3,0.5c0.1-0.4,0.2-0.9,0.3-1.4c-0.4-0.2-0.9-0.3-1.3-0.5
		c-66.4-24.5-129.5-49-164.3-73.5c-0.5,0.4-1,0.9-1.5,1.3C265.7,452.3,329.3,476.8,396,501.3z"/>
	<path class="st1" d="M401.8,487.9c0.4,0.2,0.9,0.3,1.3,0.5c0.3-0.4,0.6-0.9,0.9-1.4c-0.4-0.2-0.8-0.3-1.3-0.5
		c-64.5-24.5-123-49-154.4-73.5c-0.6,0.4-1.2,0.9-1.8,1.4C278.3,438.8,337.1,463.3,401.8,487.9z"/>
	<path class="st1" d="M413.1,474.4c0.5,0.2,0.9,0.4,1.3,0.5c0.5-0.4,0.9-0.9,1.4-1.4c-0.4-0.2-0.9-0.3-1.3-0.5
		c-63.3-24.5-118-49-146.5-73.5c-0.7,0.4-1.4,0.9-2.1,1.4C294.7,425.3,349.7,449.9,413.1,474.4z"/>
	<path class="st1" d="M250.5,528.8c14.4,4.1,29.6,8.2,45.3,12.2c0.8,0,1.7,0,2.5,0c-17.4-4.5-34.2-9-50-13.6
		C249.1,527.9,249.8,528.4,250.5,528.8z"/>
	<path class="st1" d="M231.5,515.4c27,8.6,57.7,17.1,89.9,25.7c0.8,0,1.7,0,2.5,0c-33.8-9-65.9-18-94-27
		C230.4,514.5,231,514.9,231.5,515.4z"/>
	<path class="st1" d="M217.9,501.9c36.5,13.1,81.9,26.1,129,39.2c0.8,0,1.7,0,2.5,0c-48.4-13.5-95.3-27-132.6-40.5
		C217.2,501,217.6,501.4,217.9,501.9z"/>
	<path class="st1" d="M209.6,488.4c43.3,17.6,103.2,35.1,162.9,52.6c0.8,0,1.7,0,2.5,0c-60.8-18-122.1-36-165.9-54
		C209.3,487.5,209.4,488,209.6,488.4z"/>
	<path class="st1" d="M206.3,474.9C254,497,328.6,519,398,541.1c0.8,0,1.7,0,2.5,0c-70.2-22.5-146.3-45-194.4-67.5
		C206.2,474,206.3,474.5,206.3,474.9z"/>
	<path class="st1" d="M240.3,522.1c21.1,6.3,44.2,12.6,68.3,19c0.8,0,1.7,0,2.5,0c-25.7-6.8-50.3-13.5-72.7-20.3
		C239.1,521.2,239.7,521.7,240.3,522.1z"/>
	<path class="st1" d="M224.1,508.6c32.1,10.8,70.3,21.6,110.1,32.4c0.8,0,1.7,0,2.5,0c-41.3-11.3-80.9-22.5-114-33.8
		C223.2,507.7,223.6,508.2,224.1,508.6z"/>
	<path class="st1" d="M213.1,495.1c40.2,15.3,92.8,30.6,146.6,45.9c0.8,0,1.7,0,2.5,0c-55-15.8-109-31.5-149.9-47.2
		C212.6,494.3,212.8,494.7,213.1,495.1z"/>
	<path class="st1" d="M207.4,481.7c45.8,19.8,112.9,39.6,177.9,59.4c0.8,0,1.7,0,2.5,0c-66-20.2-134.5-40.5-180.7-60.7
		C207.2,480.8,207.2,481.2,207.4,481.7z"/>
	<path class="st1" d="M411.4,540.4c-73.3-24.5-155.9-49-204.9-73.5c-0.1,0.4-0.1,0.9-0.2,1.4c49.1,24.3,131.4,48.6,204.4,72.8
		c0.8,0,1.5,0,2.3,0c0,0-0.1-0.1-0.2-0.1C412.4,540.7,411.9,540.6,411.4,540.4z"/>
	<path class="st1" d="M262.1,535.6c6.8,1.8,13.8,3.7,20.9,5.5c0.8,0,1.7,0,2.5,0c-8.8-2.3-17.5-4.6-25.9-6.8
		C260.5,534.7,261.3,535.1,262.1,535.6z"/>
	<path class="st1" d="M506.5,118c3.5,13.5,5.9,27,9.4,40.5c0-0.8,0-1.6,0-2.3c-3.3-13.2-5.7-26.3-9.1-39.5
		C506.7,117.1,506.6,117.5,506.5,118z"/>
	<path class="st1" d="M509,104.5c2.8,10.2,4.7,20.4,6.9,30.6c0-0.8,0-1.6,0-2.4c-2.1-9.9-4-19.7-6.7-29.6
		C509.2,103.6,509.1,104,509,104.5z"/>
	<path class="st1" d="M511.1,91c1.9,6.9,3.5,13.8,4.8,20.7c0-0.8,0-1.6,0-2.3c-1.3-6.6-2.7-13.2-4.6-19.8
		C511.2,90.1,511.2,90.6,511.1,91z"/>
	<path class="st1" d="M513.1,77.6c1.1,3.6,2,7.2,2.8,10.8c0-0.8,0-1.6,0-2.3c-0.8-3.3-1.5-6.6-2.5-9.9
		C513.3,76.7,513.2,77.1,513.1,77.6z"/>
	<path class="st1" d="M515.9,65c0-0.8,0-1.5,0-2.3c-0.1,0.4-0.2,0.9-0.3,1.3C515.7,64.4,515.8,64.7,515.9,65z"/>
	<path class="st1" d="M507.9,111.2c3.1,11.8,5.3,23.7,8.1,35.6c0-0.8,0-1.6,0-2.3c-2.6-11.5-4.8-23-7.8-34.6
		C508,110.3,507.9,110.8,507.9,111.2z"/>
	<path class="st1" d="M510.1,97.8c2.4,8.6,4.1,17.1,5.8,25.7c0-0.8,0-1.6,0-2.3c-1.6-8.2-3.3-16.4-5.6-24.7
		C510.2,96.9,510.2,97.3,510.1,97.8z"/>
	<path class="st1" d="M512.1,84.3c1.5,5.3,2.7,10.5,3.8,15.8c0-0.8,0-1.6,0-2.4c-1-4.9-2.2-9.9-3.6-14.8
		C512.3,83.4,512.2,83.8,512.1,84.3z"/>
	<path class="st1" d="M514.3,70.8c0.6,2,1.1,3.9,1.6,5.9c0-0.8,0-1.6,0-2.4c-0.4-1.6-0.9-3.3-1.3-4.9
		C514.5,69.9,514.4,70.4,514.3,70.8z"/>
	<path class="st1" d="M501.3,257.5c-19.2-24.5-21.9-49-25.1-73.5c-0.4,0.5-0.8,0.9-1.1,1.4c3.2,24.5,5.8,49,25.1,73.5
		c0.1,0.2,0.3,0.3,0.4,0.5c0.4-0.4,0.8-0.9,1.1-1.3C501.5,257.9,501.4,257.7,501.3,257.5z"/>
	<path class="st1" d="M511.5,244c-18.3-24.5-21.3-49-25.5-73.5c-0.3,0.4-0.6,0.9-0.9,1.3c4.1,24.5,7.1,49,25.5,73.5
		c0.1,0.2,0.3,0.3,0.4,0.5c0.3-0.4,0.6-0.9,0.9-1.3C511.7,244.4,511.6,244.2,511.5,244z"/>
	<path class="st1" d="M492.9,158.4c4.6,23.4,7.7,46.8,23,70.1c0-0.8,0-1.6,0-2.4c-14.6-23-17.7-46.1-22.3-69.1
		C493.4,157.5,493.1,157.9,492.9,158.4z"/>
	<path class="st1" d="M498.9,144.9c4.5,20.1,7.5,40.2,17.1,60.2c0-0.8,0-1.6,0-2.3c-9.1-19.8-12.1-39.5-16.6-59.3
		C499.2,144,499,144.5,498.9,144.9z"/>
	<path class="st1" d="M503.3,131.4c4,16.8,6.8,33.6,12.7,50.4c0-0.8,0-1.6,0-2.3c-5.5-16.5-8.3-32.9-12.3-49.4
		C503.5,130.5,503.4,131,503.3,131.4z"/>
	<path class="st1" d="M506.7,250.8c-18.8-24.5-21.6-49-25.4-73.5c-0.3,0.5-0.7,0.9-1,1.4c3.6,24.5,6.5,49,25.3,73.5
		c0.1,0.2,0.3,0.3,0.4,0.5c0.4-0.4,0.7-0.9,1-1.3C507,251.1,506.9,251,506.7,250.8z"/>
	<path class="st1" d="M515.5,237.3c-17.7-24.5-20.8-49-25.4-73.5c-0.3,0.4-0.5,0.9-0.8,1.3c4.6,24.5,7.6,49,25.5,73.5
		c0.1,0.2,0.2,0.3,0.4,0.5c0.3-0.4,0.5-0.9,0.8-1.3C515.7,237.7,515.6,237.5,515.5,237.3z"/>
	<path class="st1" d="M496.1,151.6c4.6,21.7,7.7,43.5,19.8,65.2c0-0.8,0-1.6,0-2.3c-11.5-21.4-14.6-42.8-19.2-64.2
		C496.5,150.8,496.3,151.2,496.1,151.6z"/>
	<path class="st1" d="M501.2,138.2c4.3,18.4,7.3,36.9,14.7,55.3c0-0.8,0-1.6,0-2.4c-7.1-18.1-10-36.2-14.3-54.3
		C501.5,137.3,501.3,137.7,501.2,138.2z"/>
	<path class="st1" d="M505,124.7c3.8,15.1,6.4,30.3,10.9,45.4c0-0.8,0-1.6,0-2.3c-4.3-14.8-6.9-29.6-10.6-44.4
		C505.2,123.8,505.1,124.3,505,124.7z"/>
	<path class="st1" d="M406,324.9c-21.3-24.5-22.6-49-20-73.5c-0.8,0.5-1.7,0.9-2.5,1.4c-2.7,24.5-1.3,49,20,73.5
		c0.2,0.2,0.3,0.3,0.4,0.5c0.9-0.4,1.7-0.9,2.5-1.4C406.3,325.2,406.2,325.1,406,324.9z"/>
	<path class="st1" d="M430.2,311.4c-20.9-24.5-22.2-49-20.7-73.5c-0.8,0.5-1.5,0.9-2.3,1.4c-1.6,24.5-0.3,49,20.6,73.5
		c0.1,0.2,0.3,0.4,0.4,0.5c0.8-0.4,1.5-0.9,2.3-1.4C430.5,311.8,430.3,311.6,430.2,311.4z"/>
	<path class="st1" d="M452.2,298c-20.5-24.5-22.1-49-21.7-73.5c-0.7,0.4-1.3,0.9-2,1.3c-0.5,24.5,1.1,49,21.7,73.5
		c0.1,0.2,0.3,0.4,0.4,0.5c0.7-0.4,1.4-0.9,2.1-1.4C452.6,298.3,452.4,298.1,452.2,298z"/>
	<path class="st1" d="M471.6,284.5c-20.2-24.5-22.2-49-23.1-73.5c-0.6,0.5-1.1,0.9-1.7,1.4c0.8,24.5,2.7,49,22.9,73.5
		c0.2,0.2,0.3,0.3,0.5,0.5c0.6-0.4,1.1-0.9,1.8-1.3C471.9,284.8,471.8,284.6,471.6,284.5z"/>
	<path class="st1" d="M488,271c-19.8-24.5-22.1-49-24.3-73.5c-0.5,0.5-0.9,0.9-1.4,1.4c2,24.5,4.4,49,24.2,73.5
		c0.2,0.2,0.3,0.3,0.4,0.5c0.5-0.5,1-0.9,1.5-1.4C488.3,271.3,488.1,271.2,488,271z"/>
	<path class="st1" d="M418.4,318.2c-21-24.5-22.4-49-20.3-73.5c-0.8,0.5-1.6,0.9-2.4,1.4c-2.2,24.5-0.9,49,20.2,73.5
		c0.2,0.2,0.4,0.3,0.5,0.5c0.8-0.4,1.6-0.9,2.4-1.4C418.6,318.5,418.5,318.3,418.4,318.2z"/>
	<path class="st1" d="M441.5,304.7c-20.7-24.5-22.1-49-21.1-73.5c-0.7,0.5-1.4,0.9-2.1,1.4c-1.1,24.5,0.4,49,21.1,73.5
		c0.2,0.2,0.3,0.4,0.4,0.5c0.8-0.4,1.5-0.9,2.2-1.4C441.8,305,441.7,304.9,441.5,304.7z"/>
	<path class="st1" d="M462.3,291.2c-20.4-24.5-22.1-49-22.4-73.5c-0.6,0.4-1.2,0.9-1.8,1.3c0.2,24.5,1.8,49,22.3,73.5
		c0.2,0.2,0.3,0.3,0.4,0.5c0.7-0.4,1.3-0.9,2-1.3C462.6,291.6,462.5,291.4,462.3,291.2z"/>
	<path class="st1" d="M480.2,277.7c-20-24.5-22.2-49-23.7-73.5c-0.5,0.5-1,0.9-1.5,1.4c1.4,24.5,3.5,49,23.6,73.5
		c0.1,0.2,0.3,0.3,0.4,0.5c0.6-0.4,1.1-0.9,1.6-1.3C480.5,278.1,480.4,277.9,480.2,277.7z"/>
	<path class="st1" d="M495,264.3c-19.5-24.5-22-49-24.8-73.5c-0.4,0.5-0.8,0.9-1.3,1.4c2.6,24.5,5.1,49,24.7,73.5
		c0.1,0.2,0.2,0.3,0.4,0.5c0.5-0.4,0.9-0.9,1.3-1.3C495.3,264.6,495.2,264.4,495,264.3z"/>
	<path class="st1" d="M276.2,393.6c0.2,0.2,0.4,0.4,0.6,0.5c0.8-0.4,1.5-0.9,2.3-1.4c-0.2-0.2-0.4-0.3-0.6-0.5
		c-28.1-24.5-34.8-49-32.6-73.5c-1,0.4-1.9,0.9-2.8,1.4C240.9,344.6,247.8,369.1,276.2,393.6z"/>
	<path class="st1" d="M299.7,380.1c0.2,0.2,0.4,0.3,0.6,0.5c0.8-0.4,1.6-0.9,2.5-1.3c-0.2-0.2-0.4-0.3-0.6-0.5
		c-25.9-24.5-30.7-49-27.5-73.5c-1,0.4-1.9,0.9-2.9,1.4C268.6,331.1,273.6,355.6,299.7,380.1z"/>
	<path class="st1" d="M327.5,365.3c-24.1-24.5-27.4-49-23.7-73.5c-1,0.4-2,0.9-3,1.4c-3.6,24.5-0.1,49,24.1,73.5
		c0.2,0.2,0.4,0.3,0.5,0.5c0.9-0.4,1.7-0.9,2.5-1.3C327.8,365.7,327.7,365.5,327.5,365.3z"/>
	<path class="st1" d="M353.9,351.8c-22.8-24.5-25.1-49-21.4-73.5c-1,0.5-1.9,0.9-2.9,1.4c-3.7,24.5-1.3,49,21.5,73.5
		c0.2,0.2,0.4,0.3,0.6,0.5c0.9-0.4,1.7-0.9,2.7-1.4C354.2,352.2,354,352,353.9,351.8z"/>
	<path class="st1" d="M380.3,338.4c-21.9-24.5-23.5-49-20.2-73.5c-0.9,0.4-1.8,0.9-2.7,1.3c-3.4,24.5-1.7,49,20.3,73.5
		c0.2,0.2,0.3,0.3,0.5,0.5c0.9-0.4,1.7-0.9,2.6-1.4C380.6,338.7,380.4,338.5,380.3,338.4z"/>
	<path class="st1" d="M287.6,386.8c0.2,0.2,0.4,0.4,0.6,0.5c0.8-0.4,1.5-0.9,2.3-1.4c-0.2-0.2-0.4-0.3-0.6-0.5
		c-26.9-24.5-32.6-49-29.9-73.5c-1,0.4-1.9,0.9-2.9,1.4C254.6,337.8,260.5,362.3,287.6,386.8z"/>
	<path class="st1" d="M312.1,373.4c0.2,0.2,0.4,0.3,0.6,0.5c0.8-0.4,1.7-0.9,2.5-1.3c-0.2-0.2-0.4-0.4-0.5-0.5
		c-24.9-24.5-29-49-25.5-73.5c-1,0.4-2,0.9-2.9,1.4C282.8,324.4,287,348.9,312.1,373.4z"/>
	<path class="st1" d="M340.6,358.6c-23.4-24.5-26.1-49-22.4-73.5c-1,0.4-1.9,0.9-2.9,1.4c-3.7,24.5-0.9,49,22.7,73.5
		c0.2,0.2,0.3,0.3,0.5,0.5c0.9-0.4,1.8-0.9,2.7-1.4C341,358.9,340.8,358.7,340.6,358.6z"/>
	<path class="st1" d="M367.2,345.1c-22.3-24.5-24.2-49-20.7-73.5c-0.9,0.4-1.8,0.9-2.8,1.3c-3.6,24.5-1.6,49,20.8,73.5
		c0.2,0.2,0.3,0.3,0.5,0.5c0.9-0.4,1.7-0.9,2.6-1.4C367.4,345.4,367.3,345.3,367.2,345.1z"/>
	<path class="st1" d="M393.3,331.6c-21.5-24.5-23-49-20-73.5c-0.9,0.4-1.7,0.9-2.6,1.3c-3.1,24.5-1.6,49,20,73.5
		c0.2,0.2,0.3,0.3,0.4,0.5c0.9-0.4,1.7-0.9,2.6-1.4C393.6,332,393.4,331.8,393.3,331.6z"/>
	<path class="st1" d="M206.7,461c0.3,0.2,0.7,0.3,1,0.5c0.1-0.4,0.3-0.9,0.4-1.4c-0.4-0.2-0.7-0.3-1-0.5
		c-47.8-24.5-69.6-49-78.3-73.5c-0.6,0.4-1.1,0.9-1.6,1.4C136.2,411.9,158.3,436.4,206.7,461z"/>
	<path class="st1" d="M212.8,447.5c0.3,0.2,0.6,0.4,0.9,0.5c0.3-0.4,0.6-0.9,0.8-1.4c-0.3-0.2-0.6-0.3-0.9-0.5
		c-42.6-24.5-60.6-49-66.6-73.5c-0.7,0.4-1.3,0.9-1.9,1.4C151.3,398.5,169.7,423,212.8,447.5z"/>
	<path class="st1" d="M223.1,434c0.3,0.2,0.5,0.3,0.8,0.5c0.4-0.4,0.8-0.9,1.3-1.3c-0.3-0.2-0.5-0.4-0.8-0.5
		c-38-24.5-52.7-49-56.2-73.5c-0.8,0.4-1.5,0.9-2.3,1.4C169.5,385,184.6,409.5,223.1,434z"/>
	<path class="st1" d="M237.3,420.5c0.3,0.2,0.5,0.3,0.8,0.5c0.5-0.4,1.1-0.9,1.6-1.4c-0.2-0.2-0.5-0.3-0.7-0.5
		c-34.2-24.5-45.9-49-47.1-73.5c-0.8,0.4-1.6,0.9-2.5,1.3C190.8,371.5,202.8,396,237.3,420.5z"/>
	<path class="st1" d="M255.2,407.1c0.2,0.2,0.4,0.3,0.6,0.5c0.7-0.4,1.3-0.9,2-1.4c-0.2-0.2-0.4-0.3-0.7-0.5
		c-30.8-24.5-39.9-49-39.2-73.5c-0.9,0.4-1.8,0.9-2.7,1.4C214.8,358,224.1,382.5,255.2,407.1z"/>
	<path class="st1" d="M209.2,454.2c0.3,0.2,0.6,0.4,1,0.5c0.2-0.4,0.4-0.9,0.6-1.4c-0.3-0.2-0.6-0.3-0.9-0.5
		c-45.1-24.5-64.9-49-72.3-73.5c-0.6,0.4-1.2,0.9-1.8,1.4C143.3,405.2,163.6,429.7,209.2,454.2z"/>
	<path class="st1" d="M217.4,440.7c0.3,0.2,0.6,0.3,0.8,0.5c0.3-0.4,0.7-0.9,1-1.3c-0.3-0.2-0.5-0.3-0.8-0.5
		c-40.2-24.5-56.6-49-61.3-73.5c-0.7,0.4-1.4,0.9-2.1,1.4C160,391.7,176.7,416.2,217.4,440.7z"/>
	<path class="st1" d="M229.7,427.3c0.2,0.2,0.5,0.3,0.8,0.5c0.5-0.4,1-0.9,1.5-1.3c-0.3-0.2-0.5-0.4-0.8-0.5
		c-36-24.5-49.2-49-51.4-73.5c-0.8,0.4-1.6,0.9-2.4,1.3C179.8,378.3,193.3,402.8,229.7,427.3z"/>
	<path class="st1" d="M245.9,413.8c0.2,0.2,0.4,0.3,0.7,0.5c0.6-0.4,1.2-0.9,1.8-1.4c-0.2-0.2-0.5-0.3-0.7-0.5
		c-32.4-24.5-42.7-49-43-73.5c-0.9,0.4-1.7,0.9-2.6,1.3C202.5,364.8,213.1,389.3,245.9,413.8z"/>
	<path class="st1" d="M265.3,400.3c0.2,0.2,0.4,0.3,0.6,0.5c0.7-0.4,1.4-0.9,2.1-1.4c-0.2-0.2-0.4-0.3-0.6-0.5
		c-29.4-24.5-37.2-49-35.7-73.5c-0.9,0.4-1.9,0.9-2.8,1.4C227.6,351.3,235.6,375.8,265.3,400.3z"/>
	<path class="st1" d="M248.7,528.3c0.6,0.2,1.2,0.3,1.8,0.5c-0.7-0.4-1.5-0.9-2.2-1.4c-0.6-0.2-1.2-0.3-1.8-0.5
		c-86.8-24.5-137.3-49-162.8-73.5c-0.1,0.4-0.1,0.9-0.1,1.4C109.5,479.3,160.9,503.8,248.7,528.3z"/>
	<path class="st1" d="M229.8,514.8c0.6,0.2,1.1,0.4,1.7,0.5c-0.5-0.4-1.1-0.9-1.6-1.4c-0.5-0.2-1.1-0.3-1.6-0.5
		c-77.2-24.5-119.9-49-141.4-73.5c-0.1,0.4-0.3,0.9-0.4,1.4C108.4,465.8,151.7,490.3,229.8,514.8z"/>
	<path class="st1" d="M216.5,501.4c0.5,0.2,1,0.3,1.4,0.5c-0.4-0.4-0.7-0.9-1-1.3c-0.5-0.2-0.9-0.3-1.4-0.5
		c-68.5-24.5-104.6-49-122.6-73.5c-0.2,0.4-0.5,0.9-0.7,1.4C110.5,452.3,147.2,476.9,216.5,501.4z"/>
	<path class="st1" d="M208.3,487.9c0.4,0.2,0.9,0.3,1.3,0.5c-0.2-0.4-0.3-0.9-0.5-1.3c-0.4-0.2-0.9-0.4-1.3-0.5
		c-60.6-24.5-91.3-49-106-73.5c-0.3,0.4-0.7,0.9-1,1.3C115.8,438.9,146.9,463.4,208.3,487.9z"/>
	<path class="st1" d="M205.2,474.4c0.4,0.2,0.8,0.3,1.1,0.5c0-0.4-0.1-0.9-0.1-1.4c-0.4-0.2-0.7-0.3-1.1-0.5
		c-53.8-24.5-79.7-49-91.3-73.5c-0.5,0.4-0.9,0.9-1.3,1.3C124.4,425.4,150.7,449.9,205.2,474.4z"/>
	<path class="st1" d="M238.6,521.6c0.6,0.2,1.1,0.3,1.7,0.5c-0.6-0.4-1.2-0.9-1.9-1.4c-0.6-0.2-1.1-0.3-1.7-0.5
		c-81.9-24.5-128.3-49-151.7-73.5c-0.1,0.4-0.2,0.9-0.3,1.4C108.5,472.6,155.7,497.1,238.6,521.6z"/>
	<path class="st1" d="M222.5,508.1c0.5,0.2,1,0.4,1.5,0.5c-0.4-0.4-0.9-0.9-1.3-1.4c-0.5-0.2-1-0.3-1.5-0.5
		c-72.7-24.5-112-49-131.7-73.5c-0.2,0.4-0.4,0.9-0.6,1.4C109.1,459.1,148.9,483.6,222.5,508.1z"/>
	<path class="st1" d="M211.8,494.6c0.5,0.2,0.9,0.3,1.3,0.5c-0.3-0.4-0.5-0.9-0.8-1.3c-0.5-0.2-0.9-0.4-1.4-0.5
		c-64.4-24.5-97.7-49-114-73.5c-0.3,0.4-0.6,0.9-0.9,1.4C112.8,445.6,146.6,470.1,211.8,494.6z"/>
	<path class="st1" d="M206.1,481.2c0.4,0.2,0.8,0.3,1.2,0.5c-0.1-0.4-0.2-0.9-0.3-1.3c-0.4-0.2-0.8-0.4-1.2-0.5
		c-57.1-24.5-85.3-49-98.4-73.5c-0.4,0.4-0.8,0.9-1.2,1.3C119.7,432.1,148.3,456.6,206.1,481.2z"/>
	<path class="st1" d="M205.3,467.7c0.4,0.2,0.7,0.3,1.1,0.5c0-0.4,0.1-0.9,0.2-1.4c-0.4-0.2-0.7-0.3-1.1-0.5
		c-50.7-24.5-74.4-49-84.6-73.5c-0.5,0.4-1,0.9-1.5,1.4C129.9,418.7,154.1,443.2,205.3,467.7z"/>
	<path class="st1" d="M111.2,522.1c15.9,6.3,34.7,12.6,56.9,18.9c0.9,0,1.7,0,2.6,0c-23.9-6.8-44-13.5-60.7-20.2
		C110.4,521.3,110.8,521.7,111.2,522.1z"/>
	<path class="st1" d="M99.9,508.7c22.9,10.8,53.7,21.6,93.8,32.4c0.9,0,1.7,0,2.5,0c-41.8-11.2-73.8-22.5-97.3-33.7
		C99.3,507.8,99.6,508.2,99.9,508.7z"/>
	<path class="st1" d="M91.6,495.2c27.3,15.3,68.8,30.6,127.6,45.8c0.9,0,1.7,0,2.6,0c-60.7-15.7-103.2-31.5-130.8-47.2
		C91.1,494.3,91.4,494.8,91.6,495.2z"/>
	<path class="st1" d="M86.2,481.7c29.5,19.8,80.8,39.5,158.6,59.3c0.9,0,1.7,0,2.6,0c-79.7-20.2-131.9-40.4-161.5-60.7
		C85.9,480.8,86.1,481.3,86.2,481.7z"/>
	<path class="st1" d="M270.5,540.4c-97-24.5-157.2-49-187-73.5c0,0.4,0.1,0.9,0.1,1.3c30.1,24.3,90.2,48.5,186.8,72.8
		c0.8,0,1.6,0,2.4,0c0,0-0.1-0.1-0.2-0.1C271.8,540.8,271.1,540.6,270.5,540.4z"/>
	<path class="st1" d="M105.2,515.4c19.8,8.6,44.8,17.1,75.7,25.6c0.9,0,1.7,0,2.5,0c-32.7-9-58.9-18-79.4-27
		C104.5,514.5,104.8,515,105.2,515.4z"/>
	<path class="st1" d="M95.4,501.9c25.4,13,61.7,26.1,111.1,39.1c0.9,0,1.7,0,2.5,0c-51.2-13.5-88.6-27-114.4-40.5
		C94.8,501,95.1,501.5,95.4,501.9z"/>
	<path class="st1" d="M88.5,488.5c28.6,17.5,75.1,35,143.4,52.6c0.9,0,1.7,0,2.6,0c-70.2-18-117.7-36-146.5-53.9
		C88.2,487.6,88.4,488,88.5,488.5z"/>
	<path class="st1" d="M84.5,475c30,22,85.8,44,173,66.1c0.9,0,1.7,0,2.6,0c-89.1-22.5-145.8-44.9-175.8-67.4
		C84.3,474.1,84.4,474.5,84.5,475z"/>
	<path class="st1" d="M260.3,535.1c0.6,0.2,1.3,0.3,1.9,0.5c-0.8-0.4-1.7-0.9-2.5-1.4c-0.6-0.2-1.2-0.3-1.9-0.5
		c-91.8-24.5-147-49-174.5-73.5c0,0.4,0,0.9,0,1.3C111.3,486,167.3,510.5,260.3,535.1z"/>
	<path class="st1" d="M125.6,535.6c5.4,1.8,11,3.6,17,5.4c0.9,0,1.7,0,2.6,0c-7.5-2.3-14.5-4.5-21.1-6.8
		C124.6,534.7,125.1,535.2,125.6,535.6z"/>
	<path class="st1" d="M118,528.9c11.1,4.1,23.5,8.1,37.3,12.2c0.9,0,1.7,0,2.6,0c-15.4-4.5-29.2-9-41.3-13.5
		C117.1,528,117.6,528.4,118,528.9z"/>
	<path class="st1" d="M515.9,39.4c-6.3-13.5-17.5-26.9-44.2-40.4c-0.9,0-1.7,0-2.5,0c28.9,14.3,40.4,28.5,46.7,42.8
		C515.9,40.9,515.9,40.1,515.9,39.4z"/>
	<path class="st1" d="M515.9,16c-4.3-5.7-10.2-11.4-18.6-17c-0.9,0-1.7,0-2.6,0c10,6.5,16.6,12.9,21.2,19.4
		C515.9,17.6,515.9,16.8,515.9,16z"/>
	<path class="st1" d="M515.9,27.7c-5.6-9.6-14.7-19.2-31.4-28.7c-0.9,0-1.7,0-2.6,0c18.6,10.4,28.2,20.7,34,31.1
		C515.9,29.2,515.9,28.5,515.9,27.7z"/>
	<path class="st1" d="M515.9,4.3c-1.7-1.8-3.7-3.6-5.9-5.4c-0.9,0-1.7,0-2.6,0c3.3,2.6,6.1,5.1,8.4,7.7
		C515.9,5.9,515.9,5.1,515.9,4.3z"/>
	<path class="st1" d="M506.7,116.1c-7-24.5-14.9-49-52.6-73.5c0.2,0.5,0.4,0.9,0.5,1.4c37.1,24.5,44.9,49,51.8,73.5
		c0,0.2,0.1,0.3,0.1,0.5c0.1-0.5,0.2-0.9,0.3-1.4C506.7,116.5,506.7,116.3,506.7,116.1z"/>
	<path class="st1" d="M509.1,102.6c-7.5-24.5-16.5-49-61.4-73.5c0.2,0.4,0.4,0.9,0.7,1.3c44.2,24.5,53.1,49,60.5,73.5
		c0,0.2,0.1,0.3,0.1,0.5c0.1-0.4,0.2-0.9,0.2-1.3C509.2,103,509.2,102.8,509.1,102.6z"/>
	<path class="st1" d="M511.1,89.2c-7.8-24.5-18.2-49-71.8-73.5c0.3,0.4,0.6,0.9,0.9,1.3c52.6,24.5,62.9,49,70.6,73.5
		c0.1,0.2,0.1,0.3,0.2,0.5c0.1-0.5,0.1-0.9,0.2-1.4C511.3,89.5,511.2,89.3,511.1,89.2z"/>
	<path class="st1" d="M513.2,75.7c-8.1-24.5-20.3-49-83.9-73.5c0.4,0.5,0.7,0.9,1.1,1.4C492.9,28,504.9,52.5,513,77
		c0,0.2,0.1,0.3,0.1,0.5c0.1-0.5,0.2-0.9,0.2-1.4C513.3,76,513.2,75.9,513.2,75.7z"/>
	<path class="st1" d="M515.6,64.1c0.1-0.4,0.2-0.9,0.3-1.3c0,0,0,0,0,0c-0.1-0.2-0.1-0.3-0.2-0.5C508.8,41.1,497,20,446.2-1.1
		c-0.9,0-1.7,0-2.5,0c52.7,21.5,64.7,43.1,71.8,64.6C515.5,63.7,515.5,63.9,515.6,64.1z"/>
	<path class="st1" d="M507.9,109.4c-7.2-24.5-15.6-49-56.8-73.5c0.2,0.5,0.4,0.9,0.6,1.4c40.5,24.5,48.8,49,55.9,73.5
		c0.1,0.2,0.1,0.3,0.2,0.5c0.1-0.4,0.2-0.9,0.2-1.3C508.1,109.7,508,109.5,507.9,109.4z"/>
	<path class="st1" d="M510.2,95.9c-7.6-24.5-17.3-49-66.4-73.5c0.3,0.4,0.6,0.9,0.8,1.3c48.2,24.5,57.8,49,65.4,73.5
		c0,0.2,0.1,0.3,0.1,0.5c0.1-0.4,0.2-0.9,0.2-1.3C510.3,96.2,510.2,96.1,510.2,95.9z"/>
	<path class="st1" d="M512.2,82.4c-8-24.5-19.3-49-77.6-73.5c0.3,0.4,0.7,0.9,1,1.3c57.4,24.5,68.5,49,76.4,73.5
		c0.1,0.2,0.1,0.3,0.2,0.5c0.1-0.5,0.2-0.9,0.2-1.4C512.3,82.8,512.2,82.6,512.2,82.4z"/>
	<path class="st1" d="M514.3,70.8c0.1-0.5,0.2-0.9,0.3-1.4c-0.1-0.2-0.1-0.3-0.2-0.5c-7.8-23.3-20.2-46.7-81-70c-0.9,0-1.7,0-2.5,0
		c62.9,23.8,75.4,47.6,83.3,71.3C514.2,70.5,514.2,70.6,514.3,70.8z"/>
	<path class="st1" d="M515.9,51c-6.6-17.4-18.7-34.7-57-52.1c-0.9,0-1.7,0-2.5,0c40.7,18.1,52.8,36.3,59.5,54.4
		C515.9,52.6,515.9,51.8,515.9,51z"/>
	<path class="st1" d="M476.1,183.5c-3.2-24.5-5.6-49-21.5-73.5c-0.2,0.5-0.4,0.9-0.6,1.4c15.6,24.5,17.8,49,20.9,73.5
		c0,0.2,0,0.3,0,0.5c0.4-0.5,0.8-0.9,1.1-1.4C476.1,183.8,476.1,183.6,476.1,183.5z"/>
	<path class="st1" d="M485.9,170c-4.2-24.5-8-49-27-73.5c-0.1,0.5-0.2,0.9-0.4,1.4c18.7,24.5,22.3,49,26.5,73.5
		c0,0.2,0.1,0.3,0.1,0.5c0.3-0.4,0.6-0.9,0.9-1.3C485.9,170.3,485.9,170.2,485.9,170z"/>
	<path class="st1" d="M493.5,156.5c-5.1-24.5-10-49-32.6-73.5c0,0.4,0,0.9-0.1,1.3c22.2,24.5,27,49,32,73.5c0,0.2,0.1,0.3,0.1,0.5
		c0.2-0.4,0.4-0.9,0.6-1.3C493.5,156.9,493.5,156.7,493.5,156.5z"/>
	<path class="st1" d="M499.2,143.1c-5.8-24.5-11.7-49-38.5-73.5c0,0.4,0.1,0.9,0.1,1.3c26.3,24.5,32.1,49,37.9,73.5
		c0,0.2,0.1,0.3,0.1,0.5c0.2-0.5,0.3-0.9,0.5-1.4C499.3,143.4,499.2,143.2,499.2,143.1z"/>
	<path class="st1" d="M503.5,129.6c-6.5-24.5-13.3-49-45.1-73.5c0.1,0.5,0.2,0.9,0.3,1.4c31.2,24.5,38,49,44.4,73.5
		c0,0.2,0.1,0.3,0.1,0.5c0.1-0.5,0.2-0.9,0.4-1.4C503.6,129.9,503.5,129.8,503.5,129.6z"/>
	<path class="st1" d="M481.3,176.7c-3.7-24.5-6.8-49-24.2-73.5c-0.2,0.5-0.3,0.9-0.4,1.4c17.1,24.5,20.1,49,23.7,73.5
		c0,0.2,0,0.3,0.1,0.5c0.3-0.5,0.7-0.9,1-1.4C481.3,177.1,481.3,176.9,481.3,176.7z"/>
	<path class="st1" d="M489.9,163.3c-4.7-24.5-9-49-29.8-73.5c0,0.5-0.1,0.9-0.2,1.4c20.4,24.5,24.6,49,29.2,73.5
		c0,0.2,0,0.3,0.1,0.5c0.3-0.4,0.5-0.9,0.8-1.3C490,163.6,490,163.4,489.9,163.3z"/>
	<path class="st1" d="M496.6,149.8c-5.5-24.5-10.9-49-35.5-73.5c0,0.4,0,0.9,0,1.3c24.2,24.5,29.5,49,34.9,73.5
		c0,0.2,0.1,0.3,0.1,0.5c0.2-0.4,0.4-0.9,0.6-1.3C496.6,150.1,496.6,150,496.6,149.8z"/>
	<path class="st1" d="M501.5,136.3c-6.2-24.5-12.6-49-41.7-73.5c0,0.5,0.1,0.9,0.2,1.4c28.6,24.5,34.9,49,41.1,73.5
		c0,0.2,0.1,0.3,0.1,0.5c0.2-0.5,0.3-0.9,0.4-1.4C501.6,136.7,501.5,136.5,501.5,136.3z"/>
	<path class="st1" d="M505.2,122.8c-6.7-24.5-14.1-49-48.7-73.5c0.2,0.5,0.3,0.9,0.4,1.4c34,24.5,41.3,49,48,73.5
		c0,0.2,0.1,0.3,0.1,0.5c0.1-0.5,0.2-0.9,0.3-1.4C505.3,123.2,505.2,123,505.2,122.8z"/>
	<path class="st1" d="M386,250.8c2.7-24.5,9.2-49,6.7-73.5c-0.6,0.5-1.3,0.9-2,1.4c2.3,24.5-4.4,49-7.2,73.5c0,0.2,0,0.3,0,0.5
		c0.8-0.5,1.7-0.9,2.5-1.4C386,251.2,386,251,386,250.8z"/>
	<path class="st1" d="M409.6,237.4c1.7-24.5,6.4-49,1.3-73.5c-0.6,0.5-1.1,0.9-1.7,1.4c4.8,24.5-0.1,49-1.9,73.5
		c0,0.2,0,0.4-0.1,0.5c0.8-0.5,1.5-0.9,2.3-1.4C409.6,237.7,409.6,237.5,409.6,237.4z"/>
	<path class="st1" d="M430.5,223.9c0.5-24.5,3.3-49-4.3-73.5c-0.5,0.5-0.9,0.9-1.4,1.4c7.3,24.5,4.4,49,3.7,73.5c0,0.2,0,0.3,0,0.5
		c0.6-0.4,1.3-0.9,2-1.3C430.5,224.2,430.5,224.1,430.5,223.9z"/>
	<path class="st1" d="M448.6,210.4c-0.8-24.5,0.1-49-10.1-73.5c-0.4,0.4-0.8,0.9-1.1,1.3c10,24.5,8.9,49,9.6,73.5c0,0.2,0,0.3,0,0.5
		c0.6-0.5,1.1-0.9,1.7-1.4C448.6,210.7,448.6,210.6,448.6,210.4z"/>
	<path class="st1" d="M463.7,196.9c-2-24.5-2.9-49-15.8-73.5c-0.3,0.5-0.6,0.9-0.8,1.4c12.7,24.5,13.4,49,15.3,73.5
		c0,0.2,0,0.3,0,0.5c0.5-0.5,1-0.9,1.4-1.4C463.7,197.3,463.7,197.1,463.7,196.9z"/>
	<path class="st1" d="M398.1,244.1c2.2-24.5,7.8-49,4-73.5c-0.6,0.5-1.2,0.9-1.8,1.4c3.5,24.5-2.3,49-4.6,73.5c0,0.2,0,0.3,0,0.5
		c0.8-0.5,1.6-0.9,2.4-1.4C398.1,244.4,398.1,244.3,398.1,244.1z"/>
	<path class="st1" d="M420.4,230.6c1.1-24.5,4.8-49-1.4-73.5c-0.5,0.5-1,0.9-1.5,1.4c6,24.5,2.1,49,0.9,73.5c0,0.2,0,0.3,0,0.5
		c0.7-0.5,1.4-0.9,2.1-1.4C420.4,231,420.4,230.8,420.4,230.6z"/>
	<path class="st1" d="M439.9,217.1c-0.2-24.5,1.7-49-7.3-73.5c-0.4,0.4-0.8,0.9-1.2,1.3c8.6,24.5,6.6,49,6.6,73.5c0,0.2,0,0.3,0,0.5
		c0.6-0.4,1.2-0.9,1.8-1.3C439.9,217.5,439.9,217.3,439.9,217.1z"/>
	<path class="st1" d="M456.5,203.7c-1.4-24.5-1.4-49-13-73.5c-0.3,0.4-0.6,0.9-1,1.3c11.3,24.5,11.1,49,12.4,73.5c0,0.2,0,0.3,0,0.5
		c0.5-0.5,1-0.9,1.5-1.4C456.5,204,456.5,203.8,456.5,203.7z"/>
	<path class="st1" d="M470.2,190.2c-2.6-24.5-4.2-49-18.7-73.5c-0.2,0.5-0.4,0.9-0.7,1.4c14.1,24.5,15.6,49,18.1,73.5
		c0,0.2,0,0.3,0,0.5c0.4-0.5,0.9-0.9,1.3-1.4C470.3,190.5,470.3,190.4,470.2,190.2z"/>
	<path class="st1" d="M242.9,319.6c0,0.2,0,0.3,0,0.5c0.9-0.4,1.9-0.9,2.8-1.4c0-0.2,0-0.3,0-0.5c2.2-24.5,12.9-49,18.8-73.5
		c-1,0.4-2,0.9-2.9,1.3C255.7,270.5,245,295,242.9,319.6z"/>
	<path class="st1" d="M271.7,306.1c0,0.2-0.1,0.3-0.1,0.5c1-0.4,2-0.9,2.9-1.4c0-0.2,0-0.3,0.1-0.5c3.2-24.5,14-49,19-73.5
		c-1,0.5-1.9,0.9-2.9,1.4C285.7,257.1,274.9,281.6,271.7,306.1z"/>
	<path class="st1" d="M303.8,291.3c3.8-24.5,14.2-49,17.8-73.5c-0.9,0.5-1.8,0.9-2.7,1.4c-3.7,24.5-14.2,49-18,73.5
		c0,0.2,0,0.3-0.1,0.5c1-0.4,2-0.9,3-1.4C303.8,291.6,303.8,291.4,303.8,291.3z"/>
	<path class="st1" d="M332.6,277.8c3.8-24.5,13.3-49,15.2-73.5c-0.8,0.4-1.7,0.9-2.5,1.3c-2,24.5-11.6,49-15.5,73.5
		c0,0.2-0.1,0.3-0.1,0.5c1-0.5,1.9-0.9,2.9-1.4C332.5,278.1,332.5,278,332.6,277.8z"/>
	<path class="st1" d="M360.2,264.3c3.5-24.5,11.5-49,11.3-73.5c-0.8,0.4-1.5,0.9-2.3,1.3c0,24.5-8.3,49-11.8,73.5
		c0,0.2,0,0.3-0.1,0.5c1-0.4,1.8-0.9,2.7-1.3C360.2,264.7,360.2,264.5,360.2,264.3z"/>
	<path class="st1" d="M257.2,312.8c0,0.2,0,0.3,0,0.5c1-0.4,1.9-0.9,2.9-1.4c0-0.2,0-0.3,0-0.5c2.8-24.5,13.7-49,19.1-73.5
		c-1,0.5-1.9,0.9-2.9,1.4C270.8,263.8,259.9,288.3,257.2,312.8z"/>
	<path class="st1" d="M286.3,299.3c0,0.2,0,0.3-0.1,0.5c1-0.4,1.9-0.9,2.9-1.4c0-0.2,0-0.3,0-0.5c3.6-24.5,14.3-49,18.6-73.5
		c-0.9,0.5-1.9,0.9-2.8,1.4C300.5,250.3,289.8,274.8,286.3,299.3z"/>
	<path class="st1" d="M318.3,284.5c3.8-24.5,13.8-49,16.6-73.5c-0.9,0.5-1.7,0.9-2.7,1.4c-2.9,24.5-13,49-16.8,73.5
		c0,0.2-0.1,0.4-0.1,0.5c1-0.4,1.9-0.9,2.9-1.4C318.3,284.9,318.3,284.7,318.3,284.5z"/>
	<path class="st1" d="M346.6,271.1c3.7-24.5,12.5-49,13.4-73.5c-0.8,0.4-1.6,0.9-2.4,1.3c-1,24.5-10,49-13.8,73.5
		c0,0.2,0,0.3-0.1,0.5c1-0.4,1.9-0.9,2.8-1.3C346.5,271.4,346.5,271.2,346.6,271.1z"/>
	<path class="st1" d="M373.4,257.6c3.1-24.5,10.5-49,9.1-73.5c-0.7,0.4-1.4,0.9-2.1,1.3c1.1,24.5-6.4,49-9.6,73.5
		c0,0.2,0,0.3-0.1,0.5c0.9-0.4,1.7-0.9,2.6-1.3C373.3,257.9,373.3,257.8,373.4,257.6z"/>
	<path class="st1" d="M127,386.9c0.1,0.2,0.1,0.3,0.2,0.5c0.6-0.4,1.1-0.9,1.6-1.4c-0.1-0.2-0.1-0.3-0.2-0.5
		c-8.7-24.5-5-49-1.7-73.5c-0.8,0.4-1.5,0.9-2.3,1.3C121.5,337.9,118.1,362.4,127,386.9z"/>
	<path class="st1" d="M144.9,373.4c0,0.2,0.1,0.4,0.1,0.5c0.6-0.4,1.3-0.9,1.9-1.4c0-0.2-0.1-0.3-0.1-0.5c-5.9-24.5-0.3-49,4.4-73.5
		c-0.9,0.4-1.7,0.9-2.6,1.4C144.2,324.4,138.7,348.9,144.9,373.4z"/>
	<path class="st1" d="M165.8,360c0,0.2,0,0.4,0,0.5c0.8-0.4,1.5-0.9,2.3-1.4c0-0.2-0.1-0.3-0.1-0.5c-3.4-24.5,4.1-49,9.7-73.5
		c-0.9,0.4-1.8,0.9-2.8,1.4C169.5,310.9,162.1,335.5,165.8,360z"/>
	<path class="st1" d="M189.4,346.5c0,0.2,0,0.3,0,0.5c0.8-0.4,1.6-0.9,2.5-1.3c0-0.2,0-0.4,0-0.5c-1.2-24.5,7.9-49,14-73.5
		c-1,0.5-1.9,0.9-2.9,1.4C196.9,297.5,188,322,189.4,346.5z"/>
	<path class="st1" d="M215.3,333c0,0.2,0,0.3,0,0.5c0.9-0.4,1.8-0.9,2.7-1.4c0-0.2,0-0.3,0-0.5c0.7-24.5,10.8-49,17.1-73.5
		c-1,0.5-1.9,0.9-2.9,1.4C225.9,284,215.8,308.5,215.3,333z"/>
	<path class="st1" d="M135.6,380.2c0,0.2,0.1,0.3,0.2,0.5c0.6-0.4,1.2-0.9,1.8-1.4c0-0.2-0.1-0.3-0.2-0.5c-7.3-24.5-2.6-49,1.4-73.5
		c-0.8,0.4-1.6,0.9-2.4,1.4C132.5,331.2,128,355.7,135.6,380.2z"/>
	<path class="st1" d="M155,366.7c0,0.2,0.1,0.4,0.1,0.5c0.7-0.4,1.4-0.9,2.1-1.4c0-0.2-0.1-0.3-0.1-0.5c-4.6-24.5,2-49,7.2-73.5
		c-0.9,0.4-1.8,0.9-2.6,1.4C156.6,317.7,150.1,342.2,155,366.7z"/>
	<path class="st1" d="M177.3,353.2c0,0.2,0.1,0.3,0.1,0.5c0.8-0.4,1.6-0.9,2.4-1.3c0-0.2,0-0.4,0-0.5c-2.2-24.5,6.1-49,12-73.5
		c-1,0.5-1.9,0.9-2.8,1.4C183,304.2,174.8,328.7,177.3,353.2z"/>
	<path class="st1" d="M202.1,339.8c0,0.2,0,0.3,0,0.5c0.9-0.4,1.7-0.9,2.6-1.3c0-0.2,0-0.4,0-0.5c-0.2-24.5,9.5-49,15.7-73.5
		c-1,0.5-2,0.9-2.9,1.4C211.2,290.7,201.7,315.3,202.1,339.8z"/>
	<path class="st1" d="M228.9,326.3c0,0.2,0,0.3,0,0.5c1-0.4,1.9-0.9,2.8-1.4c0-0.2,0-0.3,0-0.5c1.5-24.5,12-49,18.1-73.5
		c-1,0.5-2,0.9-3,1.4C240.7,277.3,230.3,301.8,228.9,326.3z"/>
	<path class="st1" d="M83.1,454.3c0.2,0.2,0.4,0.3,0.6,0.5c0-0.4,0.1-0.9,0.1-1.4c-0.2-0.2-0.4-0.3-0.5-0.5
		c-25.7-24.5-32-49-36.4-73.5c-0.3,0.4-0.6,0.9-0.9,1.3C50.5,405.3,56.9,429.8,83.1,454.3z"/>
	<path class="st1" d="M86,440.8c0.2,0.2,0.3,0.3,0.5,0.5c0.1-0.4,0.3-0.9,0.4-1.4c-0.2-0.2-0.3-0.3-0.5-0.5
		c-21.6-24.5-26.2-49-29.1-73.5c-0.4,0.4-0.8,0.9-1.2,1.4C59.3,391.8,64,416.3,86,440.8z"/>
	<path class="st1" d="M91.8,427.3c0.1,0.2,0.3,0.4,0.4,0.5c0.2-0.4,0.5-0.9,0.7-1.4c-0.1-0.2-0.3-0.3-0.4-0.5
		c-18-24.5-20.6-49-22.1-73.5c-0.5,0.4-1,0.9-1.4,1.3C70.6,378.3,73.4,402.8,91.8,427.3z"/>
	<path class="st1" d="M100.4,413.8c0.1,0.2,0.2,0.3,0.3,0.5c0.3-0.4,0.7-0.9,1-1.3c-0.1-0.2-0.2-0.3-0.3-0.5
		c-14.7-24.5-15.3-49-15.1-73.5c-0.6,0.4-1.2,0.9-1.7,1.4C84.6,364.8,85.5,389.3,100.4,413.8z"/>
	<path class="st1" d="M112.2,400.4c0.1,0.2,0.2,0.3,0.3,0.5c0.4-0.4,0.9-0.9,1.3-1.3c-0.1-0.2-0.2-0.4-0.2-0.5
		c-11.6-24.5-10.1-49-8.3-73.5c-0.7,0.4-1.3,0.9-2,1.3C101.6,351.4,100.3,375.9,112.2,400.4z"/>
	<path class="st1" d="M84.2,447.5c0.2,0.2,0.3,0.3,0.5,0.5c0.1-0.4,0.2-0.9,0.3-1.4c-0.2-0.2-0.3-0.3-0.5-0.5
		c-23.6-24.5-29-49-32.7-73.5c-0.3,0.4-0.7,0.9-1,1.3C54.6,398.5,60.2,423,84.2,447.5z"/>
	<path class="st1" d="M88.5,434c0.1,0.2,0.3,0.4,0.4,0.5c0.2-0.4,0.4-0.9,0.6-1.4c-0.1-0.2-0.3-0.3-0.4-0.5
		c-19.8-24.5-23.4-49-25.6-73.5c-0.5,0.4-0.9,0.9-1.3,1.3C64.6,385,68.4,409.5,88.5,434z"/>
	<path class="st1" d="M95.7,420.6c0.1,0.2,0.3,0.4,0.4,0.5c0.3-0.4,0.6-0.9,0.9-1.4c-0.1-0.2-0.2-0.3-0.4-0.5
		c-16.3-24.5-18-49-18.6-73.5c-0.5,0.4-1.1,0.9-1.6,1.3C77.2,371.6,79.1,396.1,95.7,420.6z"/>
	<path class="st1" d="M105.9,407.1c0.1,0.2,0.2,0.3,0.3,0.5c0.4-0.4,0.8-0.9,1.2-1.3c-0.1-0.2-0.2-0.4-0.3-0.5
		c-13.1-24.5-12.7-49-11.6-73.5c-0.6,0.4-1.2,0.9-1.9,1.3C92.7,358.1,92.5,382.6,105.9,407.1z"/>
	<path class="st1" d="M119.2,393.6c0.1,0.2,0.1,0.3,0.2,0.5c0.5-0.4,1-0.9,1.5-1.4c-0.1-0.2-0.2-0.3-0.2-0.5
		c-10.1-24.5-7.5-49-4.9-73.5c-0.7,0.4-1.4,0.9-2.1,1.3C111.1,344.6,108.8,369.1,119.2,393.6z"/>
	<path class="st1" d="M109.9,521.6c0.4,0.2,0.9,0.3,1.3,0.5c-0.4-0.4-0.8-0.9-1.2-1.3c-0.4-0.2-0.9-0.4-1.3-0.5
		c-59.8-24.5-76.2-49-86.4-73.5c-0.1,0.4-0.1,0.9-0.2,1.3C32.4,472.6,49.1,497.1,109.9,521.6z"/>
	<path class="st1" d="M98.8,508.2c0.4,0.2,0.7,0.3,1.1,0.5c-0.3-0.4-0.7-0.9-1-1.4c-0.4-0.2-0.7-0.3-1.1-0.5
		c-50.5-24.5-64.1-49-73.3-73.5c-0.1,0.4-0.2,0.9-0.3,1.3C33.6,459.1,47.5,483.6,98.8,508.2z"/>
	<path class="st1" d="M90.7,494.7c0.3,0.2,0.6,0.3,0.9,0.5c-0.2-0.4-0.5-0.9-0.7-1.4c-0.3-0.2-0.6-0.3-0.9-0.5
		c-42.6-24.5-54.1-49-62.1-73.5c-0.1,0.4-0.3,0.9-0.4,1.4C35.7,445.7,47.4,470.2,90.7,494.7z"/>
	<path class="st1" d="M85.4,481.2c0.3,0.2,0.5,0.4,0.8,0.5c-0.1-0.4-0.3-0.9-0.4-1.4c-0.3-0.2-0.5-0.3-0.8-0.5
		c-36-24.5-45.6-49-52.6-73.5c-0.2,0.4-0.4,0.9-0.5,1.4C39,432.2,48.8,456.7,85.4,481.2z"/>
	<path class="st1" d="M82.9,467.7c0.2,0.2,0.4,0.3,0.7,0.5c0-0.4-0.1-0.9-0.1-1.3c-0.2-0.2-0.4-0.4-0.7-0.5
		c-30.4-24.5-38.4-49-44.1-73.5c-0.2,0.4-0.5,0.9-0.7,1.3C43.8,418.7,51.9,443.2,82.9,467.7z"/>
	<path class="st1" d="M104,514.9c0.4,0.2,0.8,0.3,1.2,0.5c-0.4-0.4-0.7-0.9-1.1-1.3c-0.4-0.2-0.8-0.4-1.2-0.5
		C48,489,33,464.5,23.3,440c-0.1,0.4-0.2,0.9-0.2,1.3C32.9,465.9,48.1,490.4,104,514.9z"/>
	<path class="st1" d="M94.4,501.4c0.3,0.2,0.7,0.3,1,0.5c-0.3-0.4-0.6-0.9-0.8-1.4c-0.3-0.2-0.6-0.3-1-0.5
		c-46.4-24.5-58.9-49-67.5-73.5c-0.1,0.4-0.2,0.9-0.3,1.4C34.5,452.4,47.2,476.9,94.4,501.4z"/>
	<path class="st1" d="M87.7,487.9c0.3,0.2,0.6,0.4,0.9,0.5c-0.2-0.4-0.4-0.9-0.5-1.4c-0.3-0.2-0.6-0.3-0.8-0.5
		c-39.2-24.5-49.6-49-57.2-73.5c-0.2,0.4-0.3,0.9-0.5,1.4C37.2,438.9,47.9,463.4,87.7,487.9z"/>
	<path class="st1" d="M83.8,474.5c0.2,0.2,0.5,0.3,0.7,0.5c-0.1-0.4-0.2-0.9-0.3-1.3c-0.2-0.2-0.5-0.3-0.7-0.5
		c-33.1-24.5-41.9-49-48.2-73.5c-0.2,0.4-0.4,0.9-0.6,1.4C41.2,425.5,50.2,450,83.8,474.5z"/>
	<path class="st1" d="M82.6,461c0.2,0.2,0.4,0.3,0.6,0.5c0-0.4,0-0.9,0-1.3c-0.2-0.2-0.4-0.4-0.6-0.5c-28-24.5-35.1-49-40.2-73.5
		c-0.3,0.4-0.5,0.9-0.8,1.3C46.9,412,54.2,436.5,82.6,461z"/>
	<path class="st1" d="M10.6,515.5c5.8,8.5,14.8,17,29.8,25.6c0.9,0,1.7,0,2.6,0c-16.2-9-25.7-18-31.8-26.9
		C11,514.6,10.8,515,10.6,515.5z"/>
	<path class="st1" d="M14.9,502c8.2,13,22.2,26,51.1,39.1c0.9,0,1.7,0,2.5,0c-30.5-13.5-44.9-26.9-53.4-40.4
		C15.1,501.1,15,501.5,14.9,502z"/>
	<path class="st1" d="M17.3,488.5c10.1,17.5,28.1,35,74.2,52.5c0.9,0,1.7,0,2.6,0c-48-18-66.4-35.9-76.6-53.9
		C17.4,487.6,17.4,488.1,17.3,488.5z"/>
	<path class="st1" d="M19,475c11.4,22,32.4,44,98.1,66c0.9,0,1.7,0,2.6,0c-67.8-22.4-89-44.9-100.5-67.4C19.1,474.1,19,474.6,19,475
		z"/>
	<path class="st1" d="M124.1,535.1c0.5,0.2,1,0.3,1.5,0.5c-0.5-0.4-1.1-0.9-1.6-1.3c-0.5-0.2-1-0.3-1.5-0.5
		c-70.9-24.5-90.7-49-102-73.5c0,0.4-0.1,0.9-0.1,1.4C31.9,486.1,52.1,510.6,124.1,535.1z"/>
	<path class="st1" d="M13,508.7c7.1,10.8,18.6,21.6,40.2,32.3c0.9,0,1.7,0,2.5,0c-22.9-11.2-35-22.4-42.3-33.7
		C13.3,507.8,13.2,508.3,13,508.7z"/>
	<path class="st1" d="M16.2,495.2c9.2,15.3,25.3,30.5,62.5,45.8c0.9,0,1.7,0,2.5,0c-38.9-15.7-55.4-31.4-64.8-47.1
		C16.4,494.4,16.3,494.8,16.2,495.2z"/>
	<path class="st1" d="M18.2,481.8c10.8,19.8,30.4,39.5,86.1,59.3c0.9,0,1.7,0,2.6,0c-57.6-20.2-77.6-40.4-88.5-60.6
		C18.3,480.9,18.2,481.3,18.2,481.8z"/>
	<path class="st1" d="M130.6,540.5c-77-24.5-98.9-49-110.8-73.5c0,0.4-0.1,0.9-0.1,1.4c11.9,24.2,33.9,48.5,110.2,72.7
		c0.8,0,1.7,0,2.5,0c0,0,0,0,0,0C131.7,540.8,131.2,540.7,130.6,540.5z"/>
	<path class="st1" d="M116.7,528.4c0.5,0.2,0.9,0.3,1.4,0.5c-0.5-0.4-1-0.9-1.4-1.3c-0.5-0.2-0.9-0.3-1.4-0.5
		c-65.2-24.5-83.1-49-93.9-73.5c-0.1,0.4-0.1,0.9-0.2,1.4C32.1,479.3,50.4,503.9,116.7,528.4z"/>
	<path class="st1" d="M8.2,534.9c2,2.1,4.2,4.1,6.7,6.1c0.9,0,1.7,0,2.6,0c-3.6-2.8-6.7-5.7-9.3-8.5C8.2,533.4,8.2,534.1,8.2,534.9z
		"/>
	<path class="st1" d="M8.2,523.2c4.4,5.9,10.5,11.9,19.5,17.8c0.9,0,1.7,0,2.6,0c-10.5-6.7-17.3-13.4-22-20.1
		C8.2,521.7,8.2,522.5,8.2,523.2z"/>
	<path class="st1" d="M454.6,43.9c-0.2-0.5-0.4-0.9-0.5-1.4c-0.3-0.2-0.6-0.3-0.8-0.5C430.7,27.7,396.1,13.3,344-1.1
		c-0.9,0-1.7,0-2.5,0c54,14.8,89.4,29.6,112.3,44.4C454.1,43.6,454.3,43.7,454.6,43.9z"/>
	<path class="st1" d="M448.4,30.4c-0.2-0.4-0.5-0.9-0.7-1.3c-0.3-0.2-0.7-0.3-1-0.5c-18.5-9.9-43.6-19.8-77.2-29.6
		c-0.9,0-1.7,0-2.5,0c35.4,10.3,61.4,20.7,80.5,31C447.8,30.1,448.1,30.3,448.4,30.4z"/>
	<path class="st1" d="M440.3,17c-0.3-0.4-0.6-0.9-0.9-1.3c-0.4-0.2-0.8-0.3-1.1-0.5c-12.1-5.4-26.3-10.8-43.2-16.2
		c-0.9,0-1.7,0-2.5,0c18.4,5.8,33.8,11.7,46.6,17.5C439.6,16.6,439.9,16.8,440.3,17z"/>
	<path class="st1" d="M430.4,3.5c-0.4-0.5-0.7-0.9-1.1-1.4c-0.4-0.2-0.9-0.3-1.3-0.5c-2.4-0.9-4.8-1.8-7.3-2.7c-0.9,0-1.7,0-2.5,0
		c3.8,1.3,7.5,2.7,11,4C429.5,3.2,430,3.3,430.4,3.5z"/>
	<path class="st1" d="M451.8,37.2c-0.2-0.5-0.4-0.9-0.6-1.4c-0.3-0.2-0.6-0.3-0.9-0.5c-20.8-12.1-50.8-24.3-93.5-36.4
		c-0.9,0-1.7,0-2.5,0c44.5,12.6,75.4,25.1,96.7,37.7C451.2,36.8,451.5,37,451.8,37.2z"/>
	<path class="st1" d="M444.6,23.7c-0.3-0.4-0.6-0.9-0.8-1.3c-0.3-0.2-0.7-0.3-1-0.5c-15.6-7.6-35.4-15.3-60.4-22.9
		c-0.9,0-1.7,0-2.5,0c26.7,8.1,47.6,16.2,63.8,24.2C443.9,23.4,444.3,23.5,444.6,23.7z"/>
	<path class="st1" d="M435.5,10.2c-0.3-0.4-0.7-0.9-1-1.3c-0.4-0.2-0.8-0.3-1.3-0.5c-7.6-3.1-16.1-6.3-25.4-9.4c-0.9,0-1.7,0-2.5,0
		c10.8,3.6,20.4,7.2,29,10.8C434.8,9.9,435.1,10.1,435.5,10.2z"/>
	<path class="st1" d="M454.3,109.4c-16.1-24.5-47.5-49-114.9-73.5c0.4,0.5,0.8,0.9,1.2,1.4c66.5,24.5,97.3,49,113.1,73.5
		c0.1,0.2,0.2,0.3,0.3,0.5c0.2-0.5,0.4-0.9,0.6-1.4C454.5,109.8,454.4,109.6,454.3,109.4z"/>
	<path class="st1" d="M458.5,96c-19.2-24.5-56.7-49-133.9-73.5c0.6,0.5,1.1,0.9,1.7,1.4c76.1,24.5,113,49,131.8,73.5
		c0.2,0.2,0.3,0.3,0.4,0.5c0.1-0.5,0.2-0.9,0.4-1.4C458.7,96.3,458.6,96.1,458.5,96z"/>
	<path class="st1" d="M460.4,82.5c-22.6-24.5-67.7-49-155.8-73.5c0.8,0.5,1.5,0.9,2.3,1.4c86.9,24.5,131.2,49,153.4,73.5
		c0.2,0.2,0.3,0.3,0.5,0.5c0-0.4,0.1-0.9,0.1-1.3C460.7,82.8,460.5,82.6,460.4,82.5z"/>
	<path class="st1" d="M460.8,70.9c0-0.4-0.1-0.9-0.1-1.3c-0.2-0.2-0.4-0.3-0.6-0.5c-25.4-23.3-75.6-46.7-167.2-70.1
		c-0.9,0-1.7,0-2.6,0c93.5,23.8,144.4,47.6,169.8,71.4C460.4,70.5,460.6,70.7,460.8,70.9z"/>
	<path class="st1" d="M458.7,57.4c-0.1-0.5-0.2-0.9-0.3-1.4c-0.2-0.2-0.4-0.3-0.7-0.5C433,36.7,390.1,17.8,318.5-1.1
		c-0.9,0-1.7,0-2.6,0C389.5,18.3,433.2,37.6,458,56.9C458.3,57.1,458.5,57.2,458.7,57.4z"/>
	<path class="st1" d="M456.6,102.7c-17.6-24.5-51.9-49-124-73.5c0.5,0.5,1,0.9,1.5,1.4C405.2,55,439,79.5,456.3,104
		c0.1,0.2,0.2,0.3,0.4,0.5c0.2-0.5,0.3-0.9,0.4-1.4C456.9,103,456.8,102.9,456.6,102.7z"/>
	<path class="st1" d="M459.7,89.2c-20.8-24.5-62-49-144.5-73.5c0.7,0.5,1.3,0.9,2,1.4C398.6,41.5,439,66,459.5,90.6
		c0.2,0.2,0.3,0.3,0.4,0.5c0.1-0.5,0.2-0.9,0.2-1.4C460,89.6,459.9,89.4,459.7,89.2z"/>
	<path class="st1" d="M460.5,75.7c-24.4-24.5-74.1-49-167.9-73.5c0.8,0.4,1.7,0.9,2.5,1.3c92.7,24.5,141.4,49,165.4,73.5
		c0.2,0.2,0.3,0.3,0.5,0.5c0-0.4,0-0.9,0-1.3C460.9,76.1,460.7,75.9,460.5,75.7z"/>
	<path class="st1" d="M460,64.1c-0.1-0.5-0.2-0.9-0.2-1.4c-0.2-0.2-0.4-0.3-0.7-0.5C433.9,41.2,387.3,20,305.7-1.1
		c-0.9,0-1.7,0-2.6,0c83.6,21.6,130.9,43.1,156.2,64.7C459.6,63.8,459.8,64,460,64.1z"/>
	<path class="st1" d="M456.9,50.7c-0.2-0.5-0.3-0.9-0.4-1.4c-0.2-0.2-0.5-0.3-0.8-0.5C431.9,32.2,393,15.6,331.2-1.1
		c-0.9,0-1.7,0-2.5,0C392.4,16,432.1,33.1,456.2,50.2C456.4,50.3,456.7,50.5,456.9,50.7z"/>
	<path class="st1" d="M392.7,176.8c-2.7-24.5-14.2-49-48.4-73.5c-0.4,0.4-0.7,0.9-1,1.3c33.8,24.5,45,49,47.4,73.5
		c0,0.2,0,0.3,0,0.5c0.7-0.5,1.3-0.9,2-1.4C392.7,177.1,392.7,177,392.7,176.8z"/>
	<path class="st1" d="M410.8,163.3c-5.2-24.5-19.9-49-59.1-73.5c-0.2,0.5-0.4,0.9-0.6,1.4c38.7,24.5,53.1,49,58,73.5
		c0,0.2,0,0.3,0.1,0.5c0.6-0.5,1.2-0.9,1.7-1.4C410.9,163.7,410.9,163.5,410.8,163.3z"/>
	<path class="st1" d="M426,149.8c-7.8-24.5-25.9-49-70.8-73.5c-0.1,0.5-0.1,0.9-0.2,1.4c44.3,24.5,62.1,49,69.6,73.5
		c0.1,0.2,0.1,0.3,0.2,0.5c0.5-0.5,0.9-0.9,1.4-1.4C426.1,150.2,426.1,150,426,149.8z"/>
	<path class="st1" d="M438.2,136.4c-10.5-24.5-32.4-49-83.8-73.5c0.1,0.4,0.2,0.9,0.2,1.3c50.7,24.5,72.3,49,82.5,73.5
		c0.1,0.2,0.1,0.3,0.2,0.5c0.4-0.4,0.8-0.9,1.1-1.3C438.4,136.7,438.3,136.5,438.2,136.4z"/>
	<path class="st1" d="M447.6,122.9c-13.2-24.5-39.5-49-98.4-73.5c0.2,0.4,0.5,0.9,0.7,1.3c58.1,24.5,83.9,49,96.8,73.5
		c0.1,0.2,0.2,0.3,0.3,0.5c0.3-0.5,0.6-0.9,0.8-1.4C447.8,123.2,447.7,123.1,447.6,122.9z"/>
	<path class="st1" d="M402.1,170c-3.9-24.5-17-49-53.6-73.5c-0.3,0.5-0.5,0.9-0.8,1.4c36.2,24.5,48.9,49,52.6,73.5
		c0,0.2,0,0.3,0.1,0.5c0.6-0.5,1.2-0.9,1.8-1.4C402.2,170.4,402.1,170.2,402.1,170z"/>
	<path class="st1" d="M418.8,156.6c-6.4-24.5-22.8-49-64.8-73.5c-0.1,0.5-0.2,0.9-0.4,1.4c41.4,24.5,57.4,49,63.6,73.5
		c0,0.2,0.1,0.3,0.2,0.5c0.5-0.5,1-0.9,1.5-1.4C418.9,156.9,418.8,156.8,418.8,156.6z"/>
	<path class="st1" d="M432.5,143.1c-9.1-24.5-29.1-49-77.1-73.5c0,0.5,0,0.9,0,1.4c47.4,24.5,67,49,75.8,73.5c0,0.2,0.1,0.3,0.2,0.5
		c0.4-0.4,0.8-0.9,1.2-1.3C432.6,143.5,432.6,143.3,432.5,143.1z"/>
	<path class="st1" d="M443.2,129.6c-11.8-24.5-35.9-49-90.9-73.5c0.2,0.4,0.4,0.9,0.5,1.3c54.3,24.5,77.9,49,89.4,73.5
		c0.1,0.2,0.2,0.3,0.2,0.5c0.3-0.4,0.7-0.9,1-1.3C443.4,130,443.3,129.8,443.2,129.6z"/>
	<path class="st1" d="M451.3,116.2c-14.6-24.5-43.4-49-106.3-73.5c0.3,0.4,0.6,0.9,1,1.3c62.2,24.5,90.4,49,104.7,73.5
		c0.1,0.2,0.2,0.3,0.3,0.5c0.2-0.5,0.5-0.9,0.7-1.4C451.5,116.5,451.3,116.3,451.3,116.2z"/>
	<path class="st1" d="M261.8,245.5c0,0.2-0.1,0.3-0.1,0.5c1-0.4,2-0.9,2.9-1.3c0-0.2,0.1-0.3,0.1-0.5c5.8-24.5,6.5-49-11.2-73.5
		c-0.8,0.4-1.6,0.9-2.5,1.3C268.5,196.5,267.6,221,261.8,245.5z"/>
	<path class="st1" d="M290.9,232c0,0.2-0.1,0.3-0.1,0.5c1-0.5,1.9-0.9,2.9-1.4c0-0.2,0.1-0.3,0.1-0.5c4.9-24.5,3.8-49-16.3-73.5
		c-0.8,0.4-1.5,0.9-2.3,1.3C295,183,295.9,207.5,290.9,232z"/>
	<path class="st1" d="M321.6,217.2c3.6-24.5,0.3-49-22.6-73.5c-0.7,0.5-1.3,0.9-2,1.4c22.5,24.5,25.6,49,21.9,73.5
		c0,0.2,0,0.3-0.1,0.5c0.9-0.5,1.8-0.9,2.7-1.4C321.6,217.5,321.6,217.4,321.6,217.2z"/>
	<path class="st1" d="M347.8,203.7c1.7-24.5-4-49-30.1-73.5c-0.6,0.5-1.1,0.9-1.7,1.4c25.8,24.5,31.3,49,29.4,73.5
		c0,0.2,0,0.3,0,0.5c0.8-0.4,1.7-0.9,2.5-1.3C347.7,204.1,347.7,203.9,347.8,203.7z"/>
	<path class="st1" d="M371.6,190.3c-0.3-24.5-8.8-49-38.8-73.5c-0.5,0.4-0.9,0.9-1.4,1.3c29.6,24.5,37.8,49,37.9,73.5
		c0,0.2,0,0.3,0,0.5c0.8-0.4,1.5-0.9,2.3-1.3C371.6,190.6,371.6,190.4,371.6,190.3z"/>
	<path class="st1" d="M276.4,238.8c0,0.2-0.1,0.3-0.1,0.5c1-0.5,1.9-0.9,2.9-1.4c0-0.2,0.1-0.3,0.1-0.5c5.4-24.5,5.2-49-13.6-73.5
		c-0.8,0.4-1.6,0.9-2.4,1.3C281.9,189.7,281.9,214.3,276.4,238.8z"/>
	<path class="st1" d="M305.1,225.3c0,0.2-0.1,0.3-0.1,0.5c0.9-0.5,1.9-0.9,2.8-1.4c0-0.2,0.1-0.3,0.1-0.5c4.2-24.5,2.1-49-19.3-73.5
		c-0.7,0.5-1.4,0.9-2.2,1.4C307.5,176.3,309.5,200.8,305.1,225.3z"/>
	<path class="st1" d="M335,210.5c2.7-24.5-1.8-49-26.3-73.5c-0.6,0.5-1.2,0.9-1.8,1.4c24.1,24.5,28.3,49,25.5,73.5
		c0,0.2,0,0.3-0.1,0.5c0.9-0.5,1.8-0.9,2.7-1.4C334.9,210.8,335,210.6,335,210.5z"/>
	<path class="st1" d="M360,197c0.8-24.5-6.4-49-34.4-73.5c-0.5,0.5-1,0.9-1.5,1.4c27.6,24.5,34.5,49,33.5,73.5c0,0.2,0,0.3,0,0.5
		c0.8-0.4,1.6-0.9,2.4-1.3C360,197.3,360,197.2,360,197z"/>
	<path class="st1" d="M382.5,183.5C381,159,371,134.5,339,110c-0.4,0.4-0.8,0.9-1.1,1.3c31.6,24.5,41.3,49,42.5,73.5
		c0,0.2,0,0.3,0,0.5c0.7-0.4,1.4-0.9,2.1-1.3C382.5,183.9,382.5,183.7,382.5,183.5z"/>
	<path class="st1" d="M124.7,312.9c0,0.2,0,0.3-0.1,0.5c0.8-0.4,1.5-0.9,2.3-1.3c0-0.2,0.1-0.4,0.1-0.5c3.2-24.5,6.4-49-5.9-73.5
		c-0.8,0.5-1.6,0.9-2.5,1.4C131,263.8,127.8,288.4,124.7,312.9z"/>
	<path class="st1" d="M148.8,299.4c0,0.2,0,0.3-0.1,0.5c0.8-0.4,1.7-0.9,2.6-1.4c0-0.2,0-0.3,0.1-0.5c4.5-24.5,8-49-4.7-73.5
		c-0.9,0.4-1.7,0.9-2.6,1.3C156.7,250.4,153.2,274.9,148.8,299.4z"/>
	<path class="st1" d="M175.1,285.9c0,0.2-0.1,0.3-0.1,0.5c0.9-0.4,1.8-0.9,2.8-1.4c0-0.2,0.1-0.3,0.1-0.5c5.5-24.5,9-49-4.4-73.5
		c-0.9,0.5-1.8,0.9-2.7,1.4C184,236.9,180.5,261.4,175.1,285.9z"/>
	<path class="st1" d="M203.1,272.5c0,0.2-0.1,0.3-0.1,0.5c1-0.5,1.9-0.9,2.9-1.4c0.1-0.2,0.1-0.3,0.1-0.5c6-24.5,9.1-49-5.3-73.5
		c-0.9,0.5-1.8,0.9-2.7,1.4C212.2,223.4,209.1,247.9,203.1,272.5z"/>
	<path class="st1" d="M232.3,259c-0.1,0.2-0.1,0.3-0.1,0.5c1-0.5,2-0.9,2.9-1.4c0.1-0.2,0.1-0.3,0.1-0.5c6.2-24.5,8.3-49-7.6-73.5
		c-0.9,0.5-1.8,0.9-2.7,1.4C240.6,210,238.4,234.5,232.3,259z"/>
	<path class="st1" d="M136.4,306.1c0,0.2,0,0.3-0.1,0.5c0.8-0.4,1.6-0.9,2.4-1.4c0-0.2,0-0.3,0.1-0.5c3.9-24.5,7.3-49-5.2-73.5
		c-0.9,0.4-1.7,0.9-2.6,1.3C143.6,257.1,140.2,281.6,136.4,306.1z"/>
	<path class="st1" d="M161.7,292.7c0,0.2-0.1,0.3-0.1,0.5c0.9-0.4,1.7-0.9,2.6-1.4c0-0.2,0.1-0.3,0.1-0.5c5-24.5,8.6-49-4.4-73.5
		c-0.9,0.4-1.8,0.9-2.7,1.3C170.2,243.6,166.6,268.1,161.7,292.7z"/>
	<path class="st1" d="M188.9,279.2c0,0.2-0.1,0.3-0.1,0.5c0.9-0.5,1.9-0.9,2.8-1.4c0-0.2,0.1-0.3,0.1-0.5c5.8-24.5,9.1-49-4.7-73.5
		c-0.9,0.5-1.8,0.9-2.7,1.4C198,230.2,194.7,254.7,188.9,279.2z"/>
	<path class="st1" d="M217.6,265.7c0,0.2-0.1,0.3-0.1,0.5c1-0.5,1.9-0.9,2.9-1.4c0-0.2,0.1-0.3,0.1-0.5c6.2-24.5,8.8-49-6.2-73.5
		c-0.9,0.5-1.8,0.9-2.7,1.4C226.4,216.7,223.8,241.2,217.6,265.7z"/>
	<path class="st1" d="M247,252.2c-0.1,0.2-0.1,0.3-0.2,0.5c1-0.5,2-0.9,3-1.4c0-0.2,0.1-0.3,0.1-0.5c6-24.5,7.5-49-9.2-73.5
		c-0.9,0.4-1.7,0.9-2.6,1.3C254.7,203.2,253.1,227.7,247,252.2z"/>
	<path class="st1" d="M45.8,380.2c0,0.2,0.1,0.3,0.1,0.5c0.3-0.4,0.6-0.9,0.9-1.3c0-0.2-0.1-0.4-0.1-0.5c-4.3-24.5-5-49-16.8-73.5
		c-0.4,0.4-0.7,0.9-1.1,1.3C40.7,331.2,41.4,355.7,45.8,380.2z"/>
	<path class="st1" d="M56.1,366.8c0,0.2,0.1,0.3,0.1,0.5c0.4-0.4,0.8-0.9,1.2-1.4c0-0.2,0-0.3-0.1-0.5c-2.9-24.5-2.8-49-14.9-73.5
		c-0.5,0.4-0.9,0.9-1.4,1.3C53,317.7,53.1,342.2,56.1,366.8z"/>
	<path class="st1" d="M69,353.3c0,0.2,0,0.3,0.1,0.5c0.5-0.4,0.9-0.9,1.4-1.3c0-0.2,0-0.4,0-0.5c-1.4-24.5-0.5-49-12.6-73.5
		c-0.6,0.5-1.1,0.9-1.7,1.4C68.3,304.3,67.4,328.8,69,353.3z"/>
	<path class="st1" d="M84.7,339.8c0,0.2,0,0.4,0,0.5c0.6-0.4,1.2-0.9,1.7-1.4c0-0.2,0-0.3,0-0.5c0.2-24.5,2-49-10.2-73.5
		c-0.7,0.5-1.3,0.9-2,1.4C86.4,290.8,84.7,315.3,84.7,339.8z"/>
	<path class="st1" d="M103.3,326.3c0,0.2,0,0.3,0,0.5c0.7-0.4,1.3-0.9,2-1.3c0-0.2,0-0.4,0.1-0.5c1.7-24.5,4.3-49-7.9-73.5
		c-0.8,0.5-1.5,0.9-2.2,1.4C107.4,277.3,104.9,301.8,103.3,326.3z"/>
	<path class="st1" d="M50.6,373.5c0,0.2,0.1,0.3,0.1,0.5c0.4-0.4,0.7-0.9,1-1.3c0-0.2,0-0.4-0.1-0.5c-3.6-24.5-3.9-49-15.9-73.5
		c-0.4,0.4-0.8,0.9-1.2,1.3C46.5,324.5,46.9,349,50.6,373.5z"/>
	<path class="st1" d="M62.2,360c0,0.2,0,0.3,0,0.5c0.4-0.4,0.9-0.9,1.3-1.3c0-0.2,0-0.4,0-0.5c-2.2-24.5-1.7-49-13.8-73.5
		c-0.5,0.4-1,0.9-1.5,1.4C60.3,311,59.9,335.5,62.2,360z"/>
	<path class="st1" d="M76.5,346.5c0,0.2,0,0.4,0,0.5c0.5-0.4,1.1-0.9,1.6-1.3c0-0.2,0-0.4,0-0.5c-0.6-24.5,0.8-49-11.4-73.5
		c-0.6,0.5-1.2,0.9-1.8,1.4C77,297.5,75.7,322,76.5,346.5z"/>
	<path class="st1" d="M93.6,333.1c0,0.2,0,0.3,0,0.5c0.6-0.4,1.2-0.9,1.9-1.3c0-0.2,0-0.3,0-0.5c1-24.5,3.2-49-9-73.5
		c-0.7,0.5-1.4,0.9-2.1,1.4C96.6,284,94.4,308.6,93.6,333.1z"/>
	<path class="st1" d="M113.6,319.6c0,0.2,0,0.3,0,0.5c0.7-0.4,1.4-0.9,2.1-1.3c0-0.2,0.1-0.4,0.1-0.5c2.5-24.5,5.4-49-6.8-73.5
		c-0.8,0.5-1.6,0.9-2.4,1.4C118.9,270.6,116,295.1,113.6,319.6z"/>
	<path class="st1" d="M22.1,448.1c0.1-0.4,0.1-0.9,0.2-1.3c-0.1-0.2-0.1-0.3-0.2-0.5c-6.9-17.9-9.7-35.9-13.9-53.8
		c0,0.8,0,1.6,0,2.4c4,17.6,6.8,35.2,13.7,52.8C21.9,447.8,22,447.9,22.1,448.1z"/>
	<path class="st1" d="M24.4,434.6c0.1-0.4,0.2-0.9,0.3-1.3c-0.1-0.2-0.1-0.4-0.2-0.5c-7.3-21.2-9.8-42.4-16.2-63.6
		c0,0.8,0,1.5,0,2.3c6.1,20.9,8.7,41.8,16,62.7C24.2,434.3,24.3,434.5,24.4,434.6z"/>
	<path class="st1" d="M27.5,421.2c0.1-0.4,0.3-0.9,0.4-1.4c-0.1-0.2-0.1-0.3-0.2-0.5c-7.5-24.5-9.6-49-19.6-73.5c0,0.8,0,1.5,0,2.3
		c9.6,24.2,11.6,48.4,19.2,72.5C27.4,420.8,27.5,421,27.5,421.2z"/>
	<path class="st1" d="M31.8,407.2c0,0.2,0.1,0.4,0.1,0.5c0.2-0.4,0.3-0.9,0.5-1.4c0-0.2-0.1-0.3-0.1-0.5c-6.6-24.5-8.3-49-19.2-73.5
		c-0.2,0.4-0.4,0.9-0.6,1.3C23.3,358.1,25.1,382.7,31.8,407.2z"/>
	<path class="st1" d="M37.8,393.7c0,0.2,0.1,0.3,0.1,0.5c0.2-0.4,0.5-0.9,0.7-1.3c0-0.2-0.1-0.3-0.1-0.5c-5.5-24.5-6.8-49-18.2-73.5
		c-0.3,0.4-0.5,0.9-0.8,1.4C30.8,344.7,32.2,369.2,37.8,393.7z"/>
	<path class="st1" d="M23.1,441.4c0.1-0.4,0.1-0.9,0.2-1.3c-0.1-0.2-0.1-0.4-0.2-0.5c-7.2-19.6-9.8-39.1-15-58.7c0,0.8,0,1.5,0,2.3
		c5,19.2,7.6,38.5,14.7,57.7C23,441,23,441.2,23.1,441.4z"/>
	<path class="st1" d="M25.8,427.9c0.1-0.4,0.2-0.9,0.3-1.4c-0.1-0.2-0.1-0.3-0.2-0.5c-7.5-22.8-9.8-45.7-17.8-68.6
		c0,0.8,0,1.5,0,2.3c7.6,22.5,10,45.1,17.4,67.6C25.7,427.5,25.7,427.7,25.8,427.9z"/>
	<path class="st1" d="M29.4,413.9c0,0.2,0.1,0.3,0.1,0.5c0.2-0.4,0.3-0.9,0.5-1.4c0-0.2-0.1-0.3-0.2-0.5c-7.1-24.5-9-49-19.4-73.5
		c-0.2,0.4-0.3,0.9-0.5,1.3C20.3,364.9,22.2,389.4,29.4,413.9z"/>
	<path class="st1" d="M34.6,400.4c0,0.2,0.1,0.4,0.1,0.5c0.2-0.4,0.4-0.9,0.6-1.4c-0.1-0.2-0.1-0.3-0.1-0.5
		c-6-24.5-7.6-49-18.8-73.5c-0.2,0.4-0.5,0.9-0.7,1.3C26.8,351.4,28.5,375.9,34.6,400.4z"/>
	<path class="st1" d="M41.6,387c0,0.2,0.1,0.3,0.1,0.5c0.3-0.4,0.5-0.9,0.8-1.3c0-0.2-0.1-0.3-0.1-0.5c-4.9-24.5-5.9-49-17.6-73.5
		c-0.3,0.4-0.6,0.9-1,1.4C35.4,337.9,36.5,362.5,41.6,387z"/>
	<path class="st1" d="M10.6,515.5c0.2-0.4,0.4-0.9,0.5-1.4c-0.1-0.2-0.2-0.3-0.3-0.5c-1-1.5-1.8-2.9-2.6-4.4c0,0.8,0,1.6,0,2.4
		c0.7,1.1,1.3,2.2,2.1,3.4C10.4,515.1,10.5,515.3,10.6,515.5z"/>
	<path class="st1" d="M14.9,502c0.1-0.4,0.2-0.9,0.3-1.3c-0.1-0.2-0.2-0.4-0.3-0.5c-2.9-4.7-5-9.5-6.7-14.3c0,0.8,0,1.6,0,2.4
		c1.6,4.4,3.6,8.8,6.3,13.3C14.6,501.6,14.8,501.8,14.9,502z"/>
	<path class="st1" d="M17.3,488.5c0.1-0.4,0.1-0.9,0.2-1.3c-0.1-0.2-0.2-0.4-0.3-0.5c-4.4-8-7-16.1-9-24.1c0,0.8,0,1.5,0,2.3
		c1.9,7.7,4.6,15.4,8.8,23.1C17.1,488.2,17.2,488.3,17.3,488.5z"/>
	<path class="st1" d="M19,475c0-0.4,0.1-0.9,0.1-1.4c-0.1-0.2-0.2-0.3-0.2-0.5c-5.6-11.3-8.3-22.7-10.7-34c0,0.8,0,1.5,0,2.3
		c2.3,11,5.1,22,10.5,33C18.8,474.7,18.9,474.9,19,475z"/>
	<path class="st1" d="M20.4,461.6c0-0.4,0.1-0.9,0.1-1.4c-0.1-0.2-0.1-0.3-0.2-0.5c-6.4-14.6-9.2-29.3-12.1-43.9c0,0.8,0,1.5,0,2.3
		c2.9,14.3,5.7,28.6,12,42.9C20.2,461.2,20.3,461.4,20.4,461.6z"/>
	<path class="st1" d="M13,508.7c0.1-0.4,0.3-0.9,0.4-1.3c-0.1-0.2-0.2-0.3-0.3-0.5c-2-3.1-3.6-6.2-4.9-9.3c0,0.8,0,1.5,0,2.3
		c1.3,2.8,2.7,5.5,4.5,8.3C12.8,508.4,12.9,508.5,13,508.7z"/>
	<path class="st1" d="M16.2,495.2c0.1-0.4,0.2-0.9,0.2-1.3c-0.1-0.2-0.2-0.4-0.3-0.5c-3.7-6.4-6.1-12.8-8-19.2c0,0.8,0,1.5,0,2.3
		c1.8,6.1,4.2,12.1,7.8,18.2C16,494.9,16.1,495.1,16.2,495.2z"/>
	<path class="st1" d="M18.2,481.8c0-0.4,0.1-0.9,0.1-1.4c-0.1-0.2-0.2-0.3-0.3-0.5c-5-9.7-7.8-19.4-9.9-29.1c0,0.8,0,1.6,0,2.4
		c2.1,9.4,4.8,18.7,9.7,28.1C18,481.4,18.1,481.6,18.2,481.8z"/>
	<path class="st1" d="M19.7,468.3c0.1-0.4,0.1-0.9,0.1-1.4c-0.1-0.2-0.2-0.3-0.2-0.5c-6-13-8.8-26-11.4-38.9c0,0.8,0,1.5,0,2.3
		c2.5,12.6,5.3,25.3,11.2,37.9C19.5,468,19.6,468.1,19.7,468.3z"/>
	<path class="st1" d="M21.2,454.8c0.1-0.4,0.1-0.9,0.2-1.4c-0.1-0.2-0.1-0.3-0.2-0.5c-6.7-16.3-9.5-32.5-13-48.8c0,0.8,0,1.5,0,2.3
		c3.4,15.9,6.2,31.9,12.8,47.8C21,454.5,21.1,454.7,21.2,454.8z"/>
	<path class="st1" d="M340.6,37.2c-0.4-0.5-0.8-0.9-1.2-1.4c-0.5-0.2-1-0.3-1.4-0.5c-33.2-12.1-75.2-24.3-121.7-36.4
		c-0.9,0-1.7,0-2.6,0c48.1,12.6,91.5,25.2,125.4,37.8C339.7,36.9,340.1,37.1,340.6,37.2z"/>
	<path class="st1" d="M326.3,23.8c-0.6-0.5-1.1-0.9-1.7-1.4c-0.5-0.2-1.1-0.3-1.6-0.5c-24-7.7-51.4-15.3-81.2-23c-0.9,0-1.7,0-2.6,0
		c31.5,8.1,60.4,16.2,85.4,24.3C325.2,23.4,325.8,23.6,326.3,23.8z"/>
	<path class="st1" d="M306.9,10.3c-0.8-0.5-1.5-0.9-2.3-1.4c-0.6-0.2-1.2-0.3-1.8-0.5c-11.3-3.2-23.1-6.3-35.4-9.5
		c-0.9,0-1.7,0-2.6,0c14.1,3.6,27.5,7.2,40.2,10.8C305.7,9.9,306.3,10.1,306.9,10.3z"/>
	<path class="st1" d="M334.1,30.5c-0.5-0.5-1-0.9-1.5-1.4c-0.5-0.2-1-0.3-1.5-0.5c-29-9.9-63.8-19.8-102-29.7c-0.9,0-1.7,0-2.6,0
		c39.9,10.3,76.2,20.7,106,31C333.1,30.2,333.6,30.3,334.1,30.5z"/>
	<path class="st1" d="M317.3,17c-0.6-0.5-1.3-0.9-2-1.4c-0.6-0.2-1.1-0.3-1.7-0.5c-18-5.4-37.8-10.8-58.9-16.2c-0.9,0-1.7,0-2.6,0
		c22.8,5.9,44.2,11.7,63.5,17.6C316.2,16.7,316.7,16.9,317.3,17z"/>
	<path class="st1" d="M295.1,3.5c-0.8-0.4-1.7-0.9-2.5-1.3c-0.6-0.2-1.2-0.3-1.9-0.5c-3.5-0.9-6.9-1.8-10.5-2.8c-0.9,0-1.7,0-2.6,0
		c5.3,1.4,10.5,2.7,15.6,4.1C293.8,3.2,294.5,3.4,295.1,3.5z"/>
	<path class="st1" d="M343.5,102.7c-33.3-24.5-95.3-49-168.8-73.5c0.2,0.4,0.4,0.9,0.6,1.3c73.1,24.5,134.3,49,167.2,73.5
		c0.2,0.2,0.5,0.3,0.7,0.5c0.3-0.4,0.6-0.9,1-1.3C344,103.1,343.7,102.9,343.5,102.7z"/>
	<path class="st1" d="M350.9,89.3c-38.1-24.5-107.4-49-185.5-73.5c0.4,0.5,0.8,0.9,1.2,1.4c77.6,24.5,146.2,49,183.7,73.5
		c0.2,0.2,0.5,0.3,0.8,0.5c0.2-0.5,0.4-0.9,0.6-1.4C351.5,89.6,351.2,89.4,350.9,89.3z"/>
	<path class="st1" d="M354.3,75.8c-43.4-24.5-121.5-49-203.8-73.5c0.6,0.5,1.2,0.9,1.8,1.4c81.9,24.5,159,49,201.9,73.5
		c0.3,0.2,0.6,0.3,1,0.5c0-0.5,0.1-0.9,0.2-1.4C354.9,76.1,354.6,76,354.3,75.8z"/>
	<path class="st1" d="M354.7,64.2c-0.1-0.4-0.2-0.9-0.2-1.3c-0.4-0.2-0.7-0.3-1.1-0.5C310,41.2,240.3,20.1,165.2-1.1
		c-0.9,0-1.7,0-2.6,0c76.2,21.6,147.3,43.1,191,64.7C354,63.8,354.3,64,354.7,64.2z"/>
	<path class="st1" d="M349.9,50.7c-0.2-0.4-0.5-0.9-0.7-1.3c-0.4-0.2-0.8-0.3-1.2-0.5c-39.5-16.6-95.5-33.3-157.2-49.9
		c-0.9,0-1.7,0-2.6,0C251.4,16,308.7,33.1,348.7,50.2C349.2,50.4,349.5,50.5,349.9,50.7z"/>
	<path class="st1" d="M347.7,96c-35.6-24.5-101.1-49-176.9-73.5c0.3,0.4,0.6,0.9,0.9,1.3c75.3,24.5,140.1,49,175.2,73.5
		c0.2,0.2,0.5,0.3,0.8,0.5c0.3-0.5,0.5-0.9,0.8-1.4C348.2,96.3,348,96.2,347.7,96z"/>
	<path class="st1" d="M353.1,82.5C312.5,58,238.9,33.5,158.7,9c0.5,0.5,1,0.9,1.5,1.4c79.8,24.5,152.5,49,192.6,73.5
		c0.3,0.2,0.6,0.3,0.9,0.5c0.1-0.5,0.2-0.9,0.4-1.4C353.7,82.9,353.4,82.7,353.1,82.5z"/>
	<path class="st1" d="M355.4,70.9c0-0.5,0-0.9,0-1.4c-0.4-0.2-0.7-0.3-1-0.5C309.9,45.7,233.1,22.3,152.5-1.1c-0.9,0-1.7,0-2.6,0
		c81.7,23.8,159.9,47.6,204.5,71.4C354.7,70.6,355.1,70.7,355.4,70.9z"/>
	<path class="st1" d="M352.9,57.4c-0.2-0.4-0.3-0.9-0.5-1.3c-0.4-0.2-0.7-0.3-1.1-0.5C309.5,36.7,246.7,17.8,178-1.1
		c-0.9,0-1.7,0-2.6,0c70,19.3,134.2,38.7,176.3,58C352.1,57.1,352.5,57.3,352.9,57.4z"/>
	<path class="st1" d="M345.9,44c-0.3-0.4-0.6-0.9-1-1.3c-0.4-0.2-0.9-0.3-1.3-0.5c-36.7-14.4-85.7-28.8-140-43.2c-0.9,0-1.7,0-2.6,0
		c55.8,14.8,106.3,29.7,143.6,44.5C345,43.6,345.4,43.8,345.9,44z"/>
	<path class="st1" d="M250.6,171.4c0.1,0.2,0.3,0.3,0.4,0.5c0.8-0.4,1.6-0.9,2.5-1.3c-0.1-0.2-0.2-0.3-0.3-0.5
		c-17.2-24.5-56-49-114-73.5c-0.6,0.4-1.3,0.9-1.9,1.3C195.1,122.4,233.6,146.9,250.6,171.4z"/>
	<path class="st1" d="M274.8,158c0.2,0.2,0.3,0.3,0.4,0.5c0.8-0.4,1.5-0.9,2.3-1.3c-0.1-0.2-0.3-0.3-0.4-0.5
		c-19.5-24.5-61.4-49-121.2-73.5c-0.5,0.4-1,0.9-1.5,1.3C213.9,108.9,255.5,133.5,274.8,158z"/>
	<path class="st1" d="M298.6,143.2c-22.3-24.5-68-49-130.2-73.5c-0.3,0.5-0.7,0.9-1,1.4c61.9,24.5,107.2,49,129.2,73.5
		c0.2,0.2,0.3,0.3,0.5,0.5c0.7-0.5,1.3-0.9,2-1.4C298.9,143.5,298.7,143.3,298.6,143.2z"/>
	<path class="st1" d="M317.1,129.7c-25.5-24.5-75.8-49-141.2-73.5c-0.2,0.5-0.3,0.9-0.5,1.4c65,24.5,114.8,49,139.9,73.5
		c0.2,0.2,0.4,0.3,0.5,0.5c0.6-0.5,1.1-0.9,1.7-1.4C317.4,130,317.2,129.9,317.1,129.7z"/>
	<path class="st1" d="M332.1,116.2c-29.1-24.5-84.8-49-154-73.5c0,0.5,0,0.9,0,1.4C247,68.5,302,93,330.8,117.6
		c0.2,0.2,0.4,0.3,0.6,0.5c0.5-0.4,0.9-0.9,1.4-1.3C332.5,116.5,332.3,116.4,332.1,116.2z"/>
	<path class="st1" d="M263,164.7c0.1,0.2,0.3,0.3,0.4,0.5c0.8-0.4,1.6-0.9,2.4-1.3c-0.1-0.2-0.3-0.3-0.4-0.5
		c-18.3-24.5-58.6-49-117.4-73.5c-0.6,0.4-1.1,0.9-1.7,1.3C204.9,115.7,244.9,140.2,263,164.7z"/>
	<path class="st1" d="M286,151.2c0.2,0.2,0.3,0.3,0.4,0.5c0.8-0.5,1.5-0.9,2.2-1.4c-0.2-0.2-0.3-0.3-0.5-0.5
		c-20.8-24.5-64.6-49-125.4-73.5c-0.4,0.4-0.8,0.9-1.3,1.3C222.1,102.2,265.5,126.7,286,151.2z"/>
	<path class="st1" d="M308.2,136.4c-23.8-24.5-71.7-49-135.4-73.5c-0.2,0.5-0.5,0.9-0.8,1.4c63.4,24.5,110.9,49,134.4,73.5
		c0.2,0.2,0.3,0.3,0.5,0.5c0.6-0.5,1.2-0.9,1.8-1.4C308.5,136.8,308.4,136.6,308.2,136.4z"/>
	<path class="st1" d="M325,123c-27.3-24.5-80.1-49-147.3-73.5c-0.1,0.5-0.2,0.9-0.3,1.4c66.9,24.5,119.2,49,146,73.5
		c0.2,0.2,0.4,0.3,0.6,0.5c0.5-0.5,1-0.9,1.5-1.4C325.4,123.3,325.2,123.1,325,123z"/>
	<path class="st1" d="M338.3,109.5c-31.2-24.5-89.8-49-161.1-73.5c0.1,0.5,0.2,0.9,0.3,1.4c70.9,24.5,128.9,49,159.7,73.5
		c0.2,0.2,0.4,0.3,0.7,0.5c0.4-0.4,0.8-0.9,1.1-1.3C338.7,109.8,338.5,109.6,338.3,109.5z"/>
	<path class="st1" d="M118.4,238.8c0.1,0.2,0.2,0.3,0.3,0.5c0.8-0.5,1.6-0.9,2.5-1.4c-0.1-0.2-0.2-0.3-0.3-0.5
		c-12.3-24.5-42.1-49-100.5-73.5c-0.8,0.5-1.6,0.9-2.5,1.4C76.3,189.8,106,214.3,118.4,238.8z"/>
	<path class="st1" d="M143.7,225.3c0.1,0.2,0.2,0.3,0.3,0.5c0.9-0.4,1.7-0.9,2.6-1.3c-0.1-0.2-0.2-0.3-0.2-0.5
		c-12.6-24.5-43.6-49-101-73.5c-0.9,0.4-1.7,0.9-2.6,1.3C100.4,176.3,131.2,200.8,143.7,225.3z"/>
	<path class="st1" d="M170.4,211.9c0.1,0.2,0.2,0.3,0.3,0.5c0.9-0.5,1.8-0.9,2.7-1.4c-0.1-0.2-0.2-0.3-0.3-0.5
		C160,186,127.6,161.5,70.8,137c-0.8,0.4-1.7,0.9-2.5,1.3C125.2,162.8,157.4,187.4,170.4,211.9z"/>
	<path class="st1" d="M197.7,198.4c0.1,0.2,0.2,0.3,0.3,0.5c0.9-0.5,1.8-0.9,2.7-1.4c-0.1-0.2-0.2-0.3-0.3-0.5
		c-14.1-24.5-48.1-49-104.7-73.5c-0.8,0.5-1.6,0.9-2.4,1.4C149.9,149.4,183.7,173.9,197.7,198.4z"/>
	<path class="st1" d="M224.7,184.9c0.1,0.2,0.2,0.3,0.3,0.5c0.9-0.5,1.8-0.9,2.7-1.4c-0.1-0.2-0.2-0.3-0.3-0.5
		c-15.4-24.5-51.6-49-108.6-73.5c-0.7,0.5-1.4,0.9-2.2,1.4C173.5,135.9,209.4,160.4,224.7,184.9z"/>
	<path class="st1" d="M130.9,232.1c0.1,0.2,0.2,0.3,0.3,0.5c0.9-0.4,1.7-0.9,2.6-1.3c-0.1-0.2-0.2-0.3-0.3-0.5
		c-12.4-24.5-42.8-49-100.7-73.5c-0.8,0.5-1.6,0.9-2.5,1.4C88.2,183.1,118.5,207.6,130.9,232.1z"/>
	<path class="st1" d="M157,218.6c0.1,0.2,0.2,0.3,0.3,0.5c0.9-0.4,1.8-0.9,2.7-1.3c-0.1-0.2-0.2-0.3-0.3-0.5
		c-12.8-24.5-44.4-49-101.5-73.5c-0.9,0.4-1.7,0.9-2.5,1.3C112.7,169.6,144.2,194.1,157,218.6z"/>
	<path class="st1" d="M184,205.1c0.1,0.2,0.2,0.3,0.3,0.5c0.9-0.5,1.8-0.9,2.7-1.4c-0.1-0.2-0.2-0.3-0.3-0.5
		c-13.5-24.5-46.7-49-103.4-73.5c-0.8,0.5-1.7,0.9-2.5,1.4C137.6,156.1,170.6,180.6,184,205.1z"/>
	<path class="st1" d="M211.2,191.6c0.1,0.2,0.2,0.3,0.3,0.5c0.9-0.5,1.8-0.9,2.7-1.4c-0.1-0.2-0.2-0.3-0.3-0.5
		c-14.7-24.5-49.7-49-106.4-73.5c-0.8,0.5-1.6,0.9-2.4,1.4C161.8,142.6,196.7,167.1,211.2,191.6z"/>
	<path class="st1" d="M237.8,178.2c0.1,0.2,0.2,0.3,0.3,0.5c0.9-0.4,1.7-0.9,2.6-1.3c-0.1-0.2-0.2-0.3-0.4-0.5
		c-16.2-24.5-53.6-49-111-73.5c-0.7,0.5-1.4,0.9-2.1,1.4C184.6,129.2,221.7,153.7,237.8,178.2z"/>
	<path class="st1" d="M28.9,306.7c0.4-0.4,0.7-0.9,1.1-1.3c-0.1-0.2-0.2-0.3-0.3-0.5c-4.8-9.7-11.5-19.4-21.5-29.1
		c0,0.8,0,1.6,0,2.3c9.4,9.4,15.7,18.7,20.4,28.1C28.7,306.3,28.8,306.5,28.9,306.7z"/>
	<path class="st1" d="M41,293.2c0.5-0.4,0.9-0.9,1.4-1.3c-0.1-0.2-0.2-0.4-0.3-0.5c-6.6-13-16.8-26-33.9-39c0,0.8,0,1.6,0,2.3
		c16.3,12.7,26.1,25.3,32.6,38C40.8,292.9,40.9,293,41,293.2z"/>
	<path class="st1" d="M56.1,279.7c0.6-0.5,1.1-0.9,1.7-1.4c-0.1-0.2-0.2-0.3-0.3-0.5c-8.3-16.3-22.8-32.6-49.4-48.9
		c0,0.8,0,1.6,0,2.3c25.5,16,39.5,31.9,47.7,47.9C56,279.4,56,279.6,56.1,279.7z"/>
	<path class="st1" d="M74.3,266.3c0.7-0.5,1.3-0.9,2-1.4c-0.1-0.2-0.2-0.3-0.3-0.5c-9.9-19.6-29.5-39.2-67.8-58.8c0,0.8,0,1.6,0,2.4
		c37.1,19.3,56,38.5,65.8,57.8C74.1,265.9,74.2,266.1,74.3,266.3z"/>
	<path class="st1" d="M95.2,252.8c0.7-0.5,1.5-0.9,2.2-1.4c-0.1-0.2-0.2-0.3-0.3-0.5c-11.5-22.9-37.2-45.8-89-68.6
		c0,0.8,0,1.6,0,2.3c50.4,22.6,75.4,45.1,86.7,67.7C95,252.5,95.1,252.6,95.2,252.8z"/>
	<path class="st1" d="M34.6,299.9c0.4-0.4,0.8-0.9,1.2-1.3c-0.1-0.2-0.2-0.4-0.3-0.5c-5.7-11.3-14.1-22.7-27.3-34.1
		c0,0.8,0,1.6,0,2.3c12.6,11,20.6,22,26.1,33.1C34.4,299.6,34.5,299.8,34.6,299.9z"/>
	<path class="st1" d="M48.2,286.5c0.5-0.4,1-0.9,1.5-1.4c-0.1-0.2-0.2-0.3-0.3-0.5C42,270,29.8,255.3,8.2,240.7c0,0.8,0,1.6,0,2.3
		c20.6,14.3,32.5,28.6,39.7,42.9C48,286.1,48.1,286.3,48.2,286.5z"/>
	<path class="st1" d="M64.8,273c0.6-0.5,1.2-0.9,1.8-1.4c-0.1-0.2-0.2-0.3-0.3-0.5c-9.1-17.9-26-35.9-58.2-53.8c0,0.8,0,1.6,0,2.3
		c31,17.6,47.4,35.2,56.4,52.8C64.7,272.7,64.7,272.8,64.8,273z"/>
	<path class="st1" d="M84.4,259.5c0.7-0.5,1.4-0.9,2.1-1.4c-0.1-0.2-0.2-0.3-0.3-0.5C75.5,236.4,53.1,215.2,8.2,194
		c0,0.8,0,1.6,0,2.3c43.5,20.9,65.3,41.8,75.9,62.7C84.2,259.2,84.3,259.4,84.4,259.5z"/>
	<path class="st1" d="M106.6,246.1c0.8-0.5,1.6-0.9,2.4-1.4c-0.1-0.2-0.2-0.3-0.3-0.5c-12.3-24.5-41.6-49-100.4-73.5
		c0,0-0.1,0-0.1,0.1c0,0.7,0,1.5,0,2.2c57.5,24.2,86.1,48.4,98.2,72.6C106.5,245.7,106.5,245.9,106.6,246.1z"/>
	<path class="st1" d="M12.6,333.6c0.2-0.4,0.4-0.9,0.6-1.3c-0.1-0.2-0.1-0.4-0.2-0.5c-1.4-3.1-3-6.2-4.8-9.4c0,0.8,0,1.6,0,2.4
		c1.5,2.8,2.9,5.6,4.2,8.4C12.4,333.3,12.5,333.5,12.6,333.6z"/>
	<path class="st1" d="M19.5,320.2c0.3-0.4,0.5-0.9,0.8-1.4c-0.1-0.2-0.2-0.3-0.2-0.5c-3.1-6.4-6.9-12.8-11.9-19.2c0,0.8,0,1.5,0,2.3
		c4.6,6.1,8.2,12.2,11,18.3C19.3,319.8,19.4,320,19.5,320.2z"/>
	<path class="st1" d="M10,340.4c0.2-0.4,0.3-0.9,0.5-1.3c-0.1-0.2-0.2-0.3-0.2-0.5c-0.7-1.5-1.3-3-2-4.4c0,0.8,0,1.6,0,2.4
		c0.5,1.1,1.1,2.3,1.5,3.4C9.8,340,9.9,340.2,10,340.4z"/>
	<path class="st1" d="M15.7,326.9c0.2-0.4,0.5-0.9,0.7-1.3c-0.1-0.2-0.2-0.4-0.2-0.5c-2.2-4.8-4.8-9.5-8-14.3c0,0.8,0,1.5,0,2.3
		c2.9,4.4,5.3,8.9,7.3,13.3C15.6,326.5,15.7,326.7,15.7,326.9z"/>
	<path class="st1" d="M23.8,313.4c0.3-0.4,0.6-0.9,1-1.4c-0.1-0.2-0.2-0.3-0.3-0.5c-3.9-8.1-9.1-16.1-16.3-24.2c0,0.8,0,1.6,0,2.4
		c6.7,7.7,11.6,15.4,15.4,23.2C23.7,313.1,23.7,313.3,23.8,313.4z"/>
	<path class="st1" d="M175.3,30.5c-0.2-0.4-0.4-0.9-0.6-1.3c-0.5-0.2-1-0.3-1.5-0.5c-29.1-9.9-58.9-19.8-84.6-29.7
		c-0.9,0-1.7,0-2.6,0c26.5,10.4,57.5,20.7,87.7,31.1C174.3,30.2,174.8,30.4,175.3,30.5z"/>
	<path class="st1" d="M166.7,17.1c-0.4-0.5-0.8-0.9-1.2-1.4c-0.5-0.2-1.1-0.3-1.6-0.5C147,9.8,130.1,4.4,114.1-1.1
		c-0.8,0-1.7,0-2.5,0c17.1,5.9,35.3,11.7,53.5,17.6C165.6,16.7,166.1,16.9,166.7,17.1z"/>
	<path class="st1" d="M152.3,3.6c-0.6-0.5-1.2-0.9-1.8-1.4c-0.6-0.2-1.1-0.3-1.7-0.5c-3.1-0.9-6.1-1.9-9.1-2.8c-0.9,0-1.7,0-2.6,0
		c4.5,1.4,8.9,2.8,13.5,4.2C151.1,3.3,151.7,3.4,152.3,3.6z"/>
	<path class="st1" d="M171.7,23.8c-0.3-0.4-0.6-0.9-0.9-1.3c-0.5-0.2-1.1-0.3-1.6-0.5c-23.2-7.7-46.6-15.3-67.9-23
		c-0.9,0-1.7,0-2.6,0c22.3,8.1,46.9,16.2,71.4,24.4C170.7,23.5,171.2,23.6,171.7,23.8z"/>
	<path class="st1" d="M160.2,10.3c-0.5-0.5-1-0.9-1.5-1.4c-0.5-0.2-1.1-0.3-1.6-0.5c-10.2-3.2-20.3-6.4-30.1-9.5c-0.9,0-1.7,0-2.6,0
		c11.2,3.6,22.6,7.3,34.2,10.9C159.1,10,159.6,10.2,160.2,10.3z"/>
	<path class="st1" d="M137.2,97.9c0.6-0.4,1.3-0.9,1.9-1.3c-0.4-0.2-0.8-0.3-1.2-0.5C96.3,78.1,45.4,60.1,8.2,42.2
		c0,0.8,0,1.6,0,2.3C45.4,62.1,95.3,79.8,136,97.4C136.4,97.6,136.8,97.7,137.2,97.9z"/>
	<path class="st1" d="M154.4,84.4c0.5-0.4,1-0.9,1.5-1.3c-0.4-0.2-0.8-0.3-1.2-0.5C104.1,61.3,41.6,40.1,8.2,18.8c0,0.8,0,1.6,0,2.3
		c34.1,20.9,95.4,41.8,145,62.8C153.6,84.1,154,84.3,154.4,84.4z"/>
	<path class="st1" d="M167.3,71c0.4-0.5,0.7-0.9,1-1.4c-0.4-0.2-0.9-0.3-1.3-0.5C109,45.7,39.1,22.3,12-1.1c-0.9,0-1.7,0-2.6,0
		c26.3,23.8,97.7,47.7,156.7,71.5C166.5,70.6,166.9,70.8,167.3,71z"/>
	<path class="st1" d="M175.4,57.5c0.2-0.5,0.3-0.9,0.5-1.4c-0.5-0.2-0.9-0.3-1.3-0.5C125.2,36.7,69.7,17.8,37.5-1.1
		c-0.9,0-1.7,0-2.6,0c32,19.3,88.8,38.7,139.1,58C174.5,57.2,175,57.3,175.4,57.5z"/>
	<path class="st1" d="M178.2,44c0-0.5,0-0.9,0-1.4c-0.5-0.2-0.9-0.3-1.4-0.5C136.8,27.8,94.5,13.4,63.1-1.1c-0.9,0-1.7,0-2.6,0
		c31.7,14.9,75.4,29.7,116.2,44.6C177.2,43.7,177.7,43.9,178.2,44z"/>
	<path class="st1" d="M146.3,91.2c0.6-0.4,1.1-0.9,1.7-1.3c-0.4-0.2-0.8-0.3-1.2-0.5C100.9,69.7,44.2,50.1,8.2,30.5
		c0,0.8,0,1.6,0,2.4c36.3,19.3,91.9,38.5,136.9,57.8C145.5,90.8,145.9,91,146.3,91.2z"/>
	<path class="st1" d="M161.5,77.7c0.4-0.4,0.9-0.9,1.3-1.3c-0.4-0.2-0.8-0.3-1.2-0.5C105.9,52.9,37.7,30.1,8.2,7.2
		c0,0.8,0,1.6,0,2.3c30.4,22.6,97.5,45.1,152,67.7C160.6,77.4,161,77.5,161.5,77.7z"/>
	<path class="st1" d="M172,64.2c0.3-0.5,0.6-0.9,0.8-1.4c-0.4-0.2-0.9-0.3-1.3-0.5C117.7,41.2,55.2,20.1,24.7-1.1
		c-0.9,0-1.7,0-2.6,0C52.1,20.5,116,42.1,170.7,63.7C171.1,63.9,171.6,64.1,172,64.2z"/>
	<path class="st1" d="M177.5,50.8c0.1-0.5,0.2-0.9,0.3-1.4c-0.5-0.2-1-0.3-1.4-0.5c-44.8-16.7-93.6-33.3-126-50c-0.9,0-1.7,0-2.6,0
		C80.2,16,130.4,33.1,176.1,50.2C176.5,50.4,177,50.6,177.5,50.8z"/>
	<path class="st1" d="M177.5,37.3c-0.1-0.5-0.2-0.9-0.3-1.4c-0.5-0.2-1-0.3-1.5-0.5C141,23.3,105,11.1,75.8-1.1c-0.9,0-1.7,0-2.6,0
		c29.7,12.6,67,25.2,102.7,37.8C176.5,36.9,177,37.1,177.5,37.3z"/>
	<path class="st1" d="M17.8,165.3c0.8-0.5,1.6-0.9,2.5-1.4c-0.4-0.2-0.8-0.3-1.2-0.5c-3.5-1.5-7.1-3-10.9-4.5c0,0.8,0,1.6,0,2.3
		c2.9,1.2,5.7,2.3,8.5,3.5C17.1,164.9,17.4,165.1,17.8,165.3z"/>
	<path class="st1" d="M42.8,151.8c0.9-0.4,1.7-0.9,2.6-1.3c-0.4-0.2-0.8-0.3-1.2-0.5c-11.2-4.8-23.2-9.6-35.9-14.4
		c0,0.8,0,1.6,0,2.3c11.8,4.5,23,8.9,33.4,13.4C42,151.5,42.4,151.6,42.8,151.8z"/>
	<path class="st1" d="M68.3,138.3c0.8-0.4,1.7-0.9,2.5-1.3c-0.4-0.2-0.8-0.3-1.2-0.5c-18.6-8.1-39.4-16.1-61.4-24.2
		c0,0.8,0,1.6,0,2.4c21.1,7.7,41.1,15.5,58.9,23.2C67.5,138,67.9,138.2,68.3,138.3z"/>
	<path class="st1" d="M93.2,124.9c0.8-0.5,1.6-0.9,2.4-1.4c-0.4-0.2-0.8-0.3-1.2-0.5c-26-11.4-56.2-22.7-86.3-34.1
		c0,0.8,0,1.6,0,2.4c29.4,11,58.6,22.1,83.8,33.1C92.4,124.5,92.8,124.7,93.2,124.9z"/>
	<path class="st1" d="M116.6,111.4c0.7-0.5,1.5-0.9,2.2-1.4c-0.4-0.2-0.8-0.3-1.2-0.5C84,94.9,43.9,80.2,8.2,65.5c0,0.8,0,1.6,0,2.4
		c35.3,14.3,74.4,28.7,107.2,43C115.8,111,116.2,111.2,116.6,111.4z"/>
	<path class="st1" d="M30.2,158.6c0.8-0.5,1.6-0.9,2.5-1.4c-0.4-0.2-0.8-0.3-1.2-0.5c-7.4-3.1-15.2-6.3-23.3-9.4c0,0.8,0,1.6,0,2.4
		c7.2,2.8,14.2,5.6,20.8,8.4C29.4,158.2,29.8,158.4,30.2,158.6z"/>
	<path class="st1" d="M55.5,145.1c0.8-0.4,1.7-0.9,2.5-1.3c-0.4-0.2-0.8-0.3-1.2-0.5c-14.9-6.4-31.3-12.8-48.7-19.3
		c0,0.8,0,1.6,0,2.3c16.5,6.1,32,12.2,46.1,18.3C54.7,144.7,55.1,144.9,55.5,145.1z"/>
	<path class="st1" d="M80.9,131.6c0.8-0.5,1.7-0.9,2.5-1.4c-0.4-0.2-0.8-0.3-1.2-0.5c-22.3-9.7-47.7-19.4-74-29.2c0,0.8,0,1.6,0,2.3
		c25.5,9.4,50,18.8,71.5,28.2C80.1,131.3,80.5,131.4,80.9,131.6z"/>
	<path class="st1" d="M105.1,118.1c0.8-0.5,1.6-0.9,2.4-1.4c-0.4-0.2-0.8-0.3-1.2-0.5c-29.7-13-64.8-26-98.1-39c0,0.8,0,1.6,0,2.3
		C41,92.2,75,104.9,104,117.6C104.4,117.8,104.8,118,105.1,118.1z"/>
	<path class="st1" d="M127.3,104.7c0.7-0.5,1.4-0.9,2.1-1.4c-0.4-0.2-0.8-0.3-1.2-0.5C90.7,86.5,45.2,70.2,8.2,53.9
		c0,0.8,0,1.6,0,2.4c36.8,16,81.3,31.9,117.9,47.9C126.5,104.3,126.9,104.5,127.3,104.7z"/>
	<path class="st1" d="M8.2,170.6c0,0,0,0.1,0,0.1C8.2,170.7,8.2,170.7,8.2,170.6C8.2,170.7,8.2,170.6,8.2,170.6z"/>
</g>
</svg>
